# Blender 4.3.2
# www.blender.org
o male_player
v 0.154024 0.096401 -0.022798
v 0.098243 0.082088 -0.085312
v 0.126825 0.089129 -0.138597
v 0.187140 0.078511 -0.149334
v 0.224718 0.085303 -0.085312
v 0.132781 0.463716 -0.005473
v 0.074914 0.459272 -0.048415
v 0.103357 0.432371 -0.149898
v 0.172904 0.440999 -0.148674
v 0.201308 0.480602 -0.046384
v 0.087511 0.822131 0.068080
v 0.021134 0.785691 -0.020652
v 0.054226 0.834489 -0.140347
v 0.156923 0.837980 -0.129988
v 0.187280 0.837396 -0.022486
v 0.191884 0.340762 -0.155553
v 0.213610 0.329504 -0.069628
v 0.072483 0.318862 -0.071741
v 0.095395 0.333765 -0.156966
v 0.149823 0.321285 -0.033906
v 0.192561 0.646275 -0.032587
v 0.114943 0.634466 0.052353
v 0.067926 0.651057 -0.130328
v 0.161960 0.662859 -0.129529
v 0.038868 0.628589 -0.021692
v 0.077269 0.413677 -0.061955
v 0.208341 0.428353 -0.060033
v 0.142358 0.419190 -0.020783
v 0.122924 0.510666 0.002754
v 0.181264 0.535391 -0.126696
v 0.059750 0.505253 -0.048161
v 0.202095 0.527559 -0.046402
v 0.088794 0.522968 -0.127685
v 0.036674 0.826681 0.073212
v 0.049173 0.979538 0.100715
v 0.092330 1.000901 0.050065
v 0.149967 1.020544 -0.034790
v 0.119520 1.017823 -0.124488
v 0.053137 1.019357 -0.154088
v 0.049293 0.906996 0.078896
v 0.096231 0.923581 0.060562
v 0.171822 0.938431 -0.026644
v 0.142783 0.936265 -0.126284
v 0.078424 0.915230 -0.165583
v 0.048011 1.236463 0.095032
v 0.107414 1.236535 0.044466
v 0.163577 1.297839 -0.002329
v 0.118168 1.218088 -0.095482
v 0.065089 1.213135 -0.123090
v 0.042910 1.111893 0.089257
v 0.104481 1.087301 0.047786
v 0.141057 1.112214 -0.032147
v 0.126052 1.115221 -0.085416
v 0.050127 1.114318 -0.114111
v 0.169370 1.417336 0.019039
v 0.187973 1.444991 -0.015797
v 0.174219 1.449211 -0.089837
v 0.046725 1.493770 -0.100439
v 0.062313 1.487441 -0.025617
v 0.053351 1.446619 0.046108
v 0.142289 1.326704 -0.097286
v 0.146943 1.197665 -0.027956
v 0.123804 1.272370 0.076108
v 0.032463 1.269971 0.114962
v 0.085535 1.357142 -0.167876
v 0.025361 1.365062 0.105510
v 0.125365 1.344180 0.073464
v 0.124388 1.464487 -0.025631
v 0.119240 1.465925 -0.100590
v 0.121326 1.339779 -0.134189
v 0.157768 1.226933 -0.031247
v 0.140625 1.263518 -0.096176
v 0.102261 0.000605 0.105328
v 0.219241 0.000605 0.080464
v 0.126319 0.000605 -0.139696
v 0.188839 0.000605 -0.139696
v 0.099127 0.000701 0.025567
v 0.218849 0.002363 0.028136
v 0.114697 0.027623 0.089901
v 0.193592 0.032380 0.078630
v 0.126319 0.050496 -0.139696
v 0.189933 0.050448 -0.139638
v 0.111857 0.050425 0.014153
v 0.192556 0.046667 0.017136
v 0.208242 0.000605 -0.042349
v 0.106915 0.000605 -0.042349
v 0.210569 0.000605 -0.098381
v 0.104588 0.000605 -0.098381
v 0.097157 0.039883 -0.037004
v 0.106790 0.042194 -0.105836
v 0.209748 0.038692 -0.032110
v 0.196109 0.033814 -0.110272
v 0.099336 0.197927 -0.079285
v 0.165121 0.199178 -0.152118
v 0.158093 0.036873 0.095542
v 0.160751 0.000605 0.109415
v 0.157168 0.199626 -0.045792
v 0.114805 0.195575 -0.152493
v 0.214365 0.203774 -0.078676
v -0.154024 0.096401 -0.022798
v -0.098243 0.082088 -0.085312
v -0.117147 0.079354 -0.150360
v -0.187140 0.078511 -0.149334
v -0.224718 0.085303 -0.085312
v -0.132781 0.463716 -0.005473
v -0.074914 0.459272 -0.048415
v -0.103357 0.432371 -0.149898
v -0.172904 0.440999 -0.148674
v -0.201308 0.480602 -0.046384
v -0.087511 0.822131 0.068080
v -0.021134 0.785691 -0.020652
v -0.054226 0.834489 -0.140347
v -0.156923 0.837980 -0.129988
v -0.187280 0.837396 -0.022486
v -0.191884 0.340762 -0.155553
v -0.213610 0.329504 -0.069628
v -0.072483 0.318862 -0.071741
v -0.095395 0.333765 -0.156966
v -0.149823 0.321285 -0.033906
v -0.192561 0.646275 -0.032587
v -0.114943 0.634466 0.052353
v -0.067926 0.651057 -0.130328
v -0.161960 0.662859 -0.129529
v -0.038868 0.628589 -0.021692
v -0.077269 0.413677 -0.061955
v -0.208341 0.428353 -0.060033
v -0.142358 0.419190 -0.020783
v -0.122924 0.510666 0.002754
v -0.181264 0.535391 -0.126696
v -0.059750 0.505253 -0.048161
v -0.202095 0.527559 -0.046402
v -0.088794 0.522968 -0.127685
v 0.000000 0.819223 0.071574
v 0.000000 0.786731 -0.019178
v 0.000000 0.831507 -0.134074
v -0.036674 0.826681 0.073212
v 0.000000 0.973646 0.108663
v -0.049173 0.979538 0.100715
v -0.092330 1.000901 0.050065
v -0.149967 1.020544 -0.034790
v -0.119520 1.017823 -0.124488
v -0.053137 1.019357 -0.154088
v 0.000000 1.016962 -0.158721
v -0.049293 0.906996 0.078896
v 0.000000 0.901604 0.087844
v -0.096231 0.923581 0.060562
v -0.171822 0.938431 -0.026644
v -0.142783 0.936265 -0.126284
v -0.078424 0.915230 -0.165583
v 0.000000 0.917594 -0.161792
v 0.000000 1.217165 0.116550
v -0.048011 1.236463 0.095032
v -0.107414 1.236535 0.044466
v -0.163577 1.297839 -0.002329
v -0.118168 1.218088 -0.095482
v -0.065089 1.213135 -0.123090
v 0.000000 1.206082 -0.099452
v -0.042910 1.111893 0.089257
v 0.000000 1.113704 0.103667
v -0.104481 1.087301 0.047786
v -0.141057 1.112214 -0.032147
v -0.126052 1.115221 -0.085416
v -0.050127 1.114318 -0.114111
v 0.000000 1.106514 -0.093304
v -0.169370 1.417335 0.019039
v -0.187973 1.444991 -0.015797
v -0.174219 1.449211 -0.089837
v 0.000000 1.443766 0.053559
v 0.000000 1.490085 -0.027736
v 0.000000 1.495384 -0.116783
v -0.046725 1.493770 -0.100439
v -0.062313 1.487441 -0.025617
v -0.053351 1.446619 0.046108
v -0.142289 1.326704 -0.097286
v -0.146943 1.197665 -0.027956
v -0.123804 1.272370 0.076108
v -0.032463 1.269971 0.114962
v 0.000000 1.299667 0.121342
v 0.000000 1.365750 -0.155379
v -0.085535 1.357142 -0.167876
v -0.025361 1.365062 0.105510
v 0.000000 1.365329 0.100012
v -0.125365 1.344179 0.073464
v -0.124388 1.464487 -0.025631
v -0.119240 1.465925 -0.100590
v -0.121326 1.339778 -0.134189
v -0.157768 1.226933 -0.031247
v -0.140625 1.263518 -0.096176
v -0.102261 0.000605 0.105328
v -0.219241 0.000605 0.080464
v -0.126319 0.000605 -0.139696
v -0.188839 0.000605 -0.139696
v -0.099127 0.000701 0.025567
v -0.218849 0.002363 0.028136
v -0.114697 0.027623 0.089901
v -0.193592 0.032380 0.078630
v -0.126319 0.050496 -0.139696
v -0.189933 0.050448 -0.139638
v -0.111857 0.050425 0.014153
v -0.192556 0.046667 0.017136
v -0.208242 0.000605 -0.042349
v -0.106915 0.000605 -0.042349
v -0.210569 0.000605 -0.098381
v -0.104588 0.000605 -0.098381
v -0.097157 0.039883 -0.037004
v -0.106790 0.042194 -0.105836
v -0.209748 0.038692 -0.032110
v -0.196109 0.033814 -0.110272
v -0.099336 0.197927 -0.079285
v -0.165121 0.199178 -0.152118
v -0.158093 0.036873 0.095542
v -0.160751 0.000605 0.109415
v -0.157168 0.199626 -0.045792
v -0.114805 0.195575 -0.152493
v -0.214365 0.203774 -0.078676
v 0.114244 0.086931 -0.087083
v 0.155928 0.092574 -0.035469
v 0.117147 0.079354 -0.150360
v 0.179270 0.087724 -0.137290
v 0.198970 0.090505 -0.086439
v -0.114244 0.086931 -0.087083
v -0.155928 0.092574 -0.035469
v -0.126825 0.089129 -0.138597
v -0.179270 0.087724 -0.137290
v -0.198970 0.090505 -0.086439
v 0.098552 0.030640 0.017583
v -0.098548 0.030631 0.017585
v 0.156523 0.055905 0.018053
v -0.156523 0.055905 0.018053
v 0.301894 0.805767 0.032972
v 0.290818 0.892246 0.010185
v 0.300184 0.797380 -0.061048
v 0.288180 0.887600 -0.053504
v 0.335588 0.808949 0.032343
v 0.326155 0.896319 0.007894
v 0.333902 0.800684 -0.061701
v 0.324836 0.889869 -0.053864
v 0.296095 0.718932 0.034513
v 0.295075 0.722080 -0.031490
v 0.314446 0.712051 0.034960
v 0.313427 0.715205 -0.031047
v 0.333386 0.829364 0.028046
v 0.300551 0.825174 0.028904
v 0.280072 0.847717 0.051730
v 0.286486 0.833172 0.027943
v 0.304744 0.838446 0.063274
v 0.311167 0.823943 0.039472
v 0.297494 0.780950 0.056392
v 0.281967 0.784703 0.048853
v 0.275072 0.787564 0.064646
v 0.290597 0.783804 0.072187
v -0.301894 0.805767 0.032972
v -0.290818 0.892245 0.010185
v -0.300184 0.797380 -0.061048
v -0.288180 0.887600 -0.053504
v -0.335588 0.808949 0.032343
v -0.326155 0.896319 0.007894
v -0.333902 0.800684 -0.061701
v -0.324836 0.889869 -0.053864
v -0.296095 0.718932 0.034513
v -0.295075 0.722080 -0.031490
v -0.314446 0.712051 0.034960
v -0.313427 0.715205 -0.031047
v -0.333386 0.829364 0.028046
v -0.300551 0.825173 0.028904
v -0.280072 0.847717 0.051730
v -0.286486 0.833172 0.027943
v -0.304744 0.838446 0.063274
v -0.311167 0.823943 0.039472
v -0.297494 0.780949 0.056392
v -0.281967 0.784703 0.048853
v -0.275072 0.787564 0.064646
v -0.290597 0.783804 0.072187
v 0.016750 1.651212 0.098244
v 0.045909 1.654834 0.088971
v 0.048478 1.619756 0.093990
v 0.015737 1.621556 0.108503
v 0.058841 1.637850 0.058591
v 0.061804 1.602824 0.057513
v 0.043005 1.610194 0.088025
v 0.016952 1.609217 0.095269
v 0.045020 1.589451 0.085033
v 0.014445 1.594771 0.093597
v 0.004498 1.598641 0.097524
v 0.061276 1.567384 0.049222
v 0.044967 1.560713 0.085885
v 0.050814 1.538327 0.051711
v 0.037766 1.535471 0.081291
v 0.018748 1.559420 0.094445
v 0.023746 1.504658 0.059180
v 0.018215 1.505576 0.079841
v 0.007944 1.560661 0.120477
v 0.022716 1.513935 0.024323
v 0.055509 1.537009 0.004673
v 0.062255 1.564312 0.012327
v 0.069076 1.613785 0.012844
v 0.030209 1.446416 0.011004
v 0.054510 1.458015 -0.010347
v 0.081720 1.573705 -0.016646
v 0.086696 1.609341 -0.021988
v 0.067068 1.569293 -0.024150
v 0.072027 1.615485 -0.031447
v 0.021130 1.682124 0.086875
v 0.047124 1.667247 0.080646
v 0.040375 1.703018 0.098119
v 0.072418 1.671617 0.082260
v 0.029921 1.715265 -0.073208
v 0.060093 1.701964 -0.060219
v 0.029519 1.653638 -0.093027
v 0.055070 1.649364 -0.072618
v 0.020919 1.589078 -0.091881
v 0.044678 1.590455 -0.073174
v 0.044678 1.548661 -0.049744
v 0.078201 1.646094 -0.038269
v 0.050918 1.466914 -0.069834
v 0.075111 1.636499 0.052357
v 0.080596 1.675967 -0.037649
v 0.067377 1.698419 0.007225
v 0.084747 1.667705 0.013235
v 0.032162 1.719584 0.005278
v 0.073980 1.625213 0.016841
v 0.069299 1.605485 0.030136
v -0.016570 1.651212 0.098244
v -0.045729 1.654834 0.088971
v -0.048298 1.619756 0.093990
v -0.015557 1.621556 0.108503
v -0.078668 1.629905 0.060838
v -0.061624 1.602824 0.057513
v -0.042825 1.610194 0.088025
v -0.016772 1.609217 0.095269
v -0.044839 1.589451 0.085033
v -0.014265 1.594771 0.093597
v -0.004318 1.598641 0.097524
v -0.061096 1.567384 0.049222
v -0.044787 1.560713 0.085885
v -0.050634 1.538327 0.051711
v -0.037586 1.535471 0.081291
v -0.018568 1.559420 0.094445
v -0.023565 1.504658 0.059180
v -0.018035 1.505576 0.079841
v 0.000090 1.501101 0.060121
v 0.000090 1.503428 0.079694
v 0.000090 1.538271 0.093728
v 0.000090 1.555598 0.098621
v -0.007764 1.560661 0.120477
v 0.000090 1.559687 0.121491
v -0.022536 1.513935 0.024323
v 0.000090 1.508198 0.029284
v -0.055328 1.537009 0.004673
v 0.000090 1.648919 0.103877
v 0.000090 1.620080 0.108628
v 0.000090 1.600668 0.101495
v -0.062075 1.564312 0.012327
v -0.068895 1.613785 0.012844
v -0.030029 1.446416 0.011004
v 0.000090 1.443260 0.019952
v 0.000090 1.508583 0.089758
v -0.054330 1.458015 -0.010347
v -0.081540 1.573705 -0.016646
v -0.086516 1.609341 -0.021988
v -0.066888 1.569293 -0.024150
v -0.071847 1.615485 -0.031447
v -0.038513 1.668749 0.105307
v -0.059081 1.663803 0.086680
v -0.010372 1.673601 0.105626
v -0.032467 1.697221 0.099294
v -0.067821 1.675526 0.083608
v -0.000844 1.682792 0.105118
v -0.029741 1.715265 -0.073208
v -0.059912 1.701964 -0.060219
v 0.000090 1.718741 -0.077467
v -0.029339 1.653638 -0.093027
v -0.054890 1.649364 -0.072618
v 0.000090 1.656100 -0.100570
v -0.020739 1.589078 -0.091881
v -0.044498 1.590455 -0.073174
v 0.000090 1.591811 -0.097284
v -0.044498 1.548661 -0.049744
v -0.078020 1.646094 -0.038269
v 0.000090 1.550272 -0.071459
v -0.050738 1.466914 -0.069834
v 0.000090 1.470040 -0.092167
v -0.076013 1.649288 0.058721
v -0.080415 1.675967 -0.037649
v -0.067197 1.698419 0.007225
v 0.000090 1.726280 0.009324
v -0.084567 1.667705 0.013235
v -0.031981 1.719584 0.005278
v -0.073800 1.625213 0.016841
v -0.069119 1.605485 0.030136
v 0.290819 0.892245 0.010185
v 0.165044 1.413607 0.021285
v 0.299028 0.961691 -0.073643
v 0.164127 1.453282 -0.091529
v 0.326155 0.896319 0.007894
v 0.199492 1.415870 0.021193
v 0.327175 0.968453 -0.058901
v 0.208453 1.445080 -0.075632
v 0.319104 0.966685 -0.011625
v 0.154446 1.341213 0.021647
v 0.157879 1.381144 -0.126353
v 0.221452 1.396386 -0.116587
v 0.218249 1.358579 0.031414
v 0.288180 0.887600 -0.053504
v 0.165985 1.443803 -0.030001
v 0.324836 0.889869 -0.053864
v 0.213702 1.442124 -0.017733
v 0.246580 1.377719 -0.048003
v 0.150808 1.364028 -0.059473
v 0.284273 1.042728 -0.111810
v 0.274621 0.958081 -0.059583
v 0.320682 1.041910 -0.020930
v 0.246283 1.036427 -0.023801
v 0.234359 1.034570 -0.076774
v 0.332303 1.044631 -0.081748
v 0.278848 0.959470 -0.016175
v 0.227383 1.167712 -0.039358
v 0.249535 1.115709 -0.039596
v 0.246907 1.204216 -0.125136
v 0.276098 1.112961 -0.124993
v 0.263021 1.170408 -0.143465
v 0.294672 1.131559 -0.035578
v 0.266568 1.176241 -0.036563
v 0.316800 1.122101 -0.085112
v 0.283330 1.202691 -0.081498
v 0.298229 1.168863 -0.102239
v 0.233608 1.107247 -0.092299
v 0.208857 1.175700 -0.092438
v 0.221881 1.141080 -0.098990
v 0.255463 1.241311 -0.020723
v 0.195958 1.219209 -0.026893
v 0.175747 1.231386 -0.080835
v 0.235647 1.265474 -0.115446
v 0.279055 1.269747 -0.068065
v 0.184436 1.260607 -0.010119
v 0.187934 1.264796 -0.013698
v 0.226272 1.308194 -0.104988
v 0.226505 1.306047 -0.111561
v 0.238427 1.288482 -0.006785
v 0.241214 1.285272 -0.002740
v 0.271704 1.305105 -0.063187
v 0.266746 1.306281 -0.061841
v 0.169054 1.282711 -0.069010
v 0.163797 1.279345 -0.072222
v -0.290819 0.892246 0.010185
v -0.165044 1.413607 0.021284
v -0.299028 0.961691 -0.073643
v -0.164127 1.453281 -0.091529
v -0.326155 0.896319 0.007894
v -0.199492 1.415870 0.021192
v -0.327175 0.968453 -0.058901
v -0.208453 1.445080 -0.075632
v -0.319104 0.966685 -0.011625
v -0.154446 1.341213 0.021647
v -0.157879 1.381144 -0.126353
v -0.221452 1.396386 -0.116587
v -0.218249 1.358578 0.031414
v -0.288180 0.887600 -0.053504
v -0.165985 1.443803 -0.030001
v -0.324836 0.889869 -0.053864
v -0.213702 1.442124 -0.017733
v -0.246580 1.377719 -0.048003
v -0.150808 1.364028 -0.059473
v -0.284273 1.042728 -0.111810
v -0.274621 0.958081 -0.059583
v -0.320682 1.041911 -0.020931
v -0.246283 1.036427 -0.023801
v -0.234359 1.034570 -0.076774
v -0.332303 1.044631 -0.081748
v -0.278848 0.959470 -0.016175
v -0.227383 1.167712 -0.039358
v -0.249535 1.115709 -0.039596
v -0.246907 1.204216 -0.125136
v -0.276098 1.112961 -0.124993
v -0.263021 1.170408 -0.143465
v -0.294672 1.131559 -0.035578
v -0.266568 1.176241 -0.036563
v -0.316800 1.122101 -0.085112
v -0.283330 1.202691 -0.081498
v -0.298229 1.168863 -0.102239
v -0.233608 1.107247 -0.092299
v -0.208857 1.175700 -0.092438
v -0.221881 1.141080 -0.098990
v -0.255463 1.241311 -0.020723
v -0.195958 1.219209 -0.026893
v -0.175747 1.231386 -0.080835
v -0.235647 1.265474 -0.115447
v -0.279055 1.269747 -0.068065
v -0.184436 1.260607 -0.010119
v -0.187934 1.264796 -0.013698
v -0.226272 1.308194 -0.104988
v -0.226505 1.306046 -0.111561
v -0.238427 1.288482 -0.006785
v -0.241214 1.285272 -0.002740
v -0.271704 1.305105 -0.063187
v -0.266746 1.306281 -0.061841
v -0.169054 1.282711 -0.069010
v -0.163797 1.279345 -0.072222
vn 0.9484 0.0493 0.3133
vn 0.5396 0.1593 -0.8267
vn 0.9140 -0.0247 0.4051
vn -0.5660 0.1069 -0.8174
vn -0.9367 -0.0866 0.3393
vn -0.8992 -0.2509 0.3584
vn 0.0316 -0.1951 0.9803
vn -0.0144 -0.2164 0.9762
vn 0.9537 -0.0198 0.3000
vn 0.6577 0.0909 -0.7477
vn 0.0160 -0.1807 0.9834
vn 0.9603 0.0073 0.2787
vn 0.9631 0.0727 0.2593
vn 0.2560 -0.2169 0.9420
vn 0.5995 0.0296 -0.7998
vn -0.5862 -0.0839 -0.8058
vn -0.1759 -0.3801 -0.9081
vn 0.6773 0.0084 -0.7356
vn -0.9456 -0.1939 0.2613
vn -0.5890 -0.7947 0.1470
vn -0.9267 -0.0757 0.3680
vn 0.0125 -0.0097 0.9999
vn 0.0214 -0.1053 0.9942
vn -0.9224 -0.1058 0.3715
vn 0.4696 -0.0031 -0.8829
vn -0.5930 -0.0676 -0.8023
vn -0.6227 -0.0073 -0.7825
vn 0.6080 0.0373 -0.7930
vn 0.9688 0.0184 0.2470
vn 0.9442 -0.0230 0.3285
vn -0.6118 -0.0273 -0.7906
vn -0.9367 -0.2857 0.2024
vn -0.0359 -0.2271 0.9732
vn -0.0000 -1.0000 0.0097
vn -0.0000 -0.7006 -0.7136
vn 0.0749 -0.5598 0.8252
vn -0.0000 -0.2095 0.9778
vn 0.3024 -0.1114 0.9467
vn 0.4312 -0.0595 0.9003
vn -0.0000 -0.1220 0.9925
vn -0.0000 -0.6679 0.7443
vn 0.6370 0.0572 0.7687
vn 0.9575 0.1834 0.2227
vn 0.7728 0.1751 -0.6100
vn 0.2019 -0.0462 -0.9783
vn -0.0000 -0.1095 -0.9940
vn -0.0000 0.2788 -0.9603
vn 0.1337 0.2854 -0.9490
vn 0.6845 0.2450 -0.6867
vn 0.9819 0.1384 0.1294
vn 0.7336 0.0555 0.6773
vn -0.0000 -0.0132 0.9999
vn 0.4737 -0.0058 0.8807
vn 0.4911 -0.2763 0.8261
vn -0.0000 -0.1326 0.9912
vn 0.7754 -0.0094 0.6314
vn 0.9968 0.0067 0.0790
vn 0.7716 0.0818 -0.6308
vn 0.0371 0.1895 -0.9812
vn -0.0000 0.2449 -0.9695
vn -0.0000 -0.1643 -0.9864
vn 0.1079 -0.1984 -0.9742
vn 0.6661 -0.2132 -0.7148
vn 0.6823 -0.3318 0.6514
vn 0.9701 -0.2306 0.0755
vn 0.9369 -0.3495 -0.0062
vn 0.6547 -0.2317 0.7195
vn 0.9795 -0.1322 0.1522
vn 0.8140 -0.1170 -0.5690
vn 0.7824 0.4312 -0.4493
vn 0.8299 0.5133 0.2187
vn 0.6062 0.1556 0.7800
vn 0.1962 0.9424 0.2708
vn 0.1591 0.8802 -0.4472
vn -0.0000 0.7910 -0.6118
vn -0.0000 0.9591 0.2832
vn 0.1737 0.7022 0.6904
vn -0.0000 0.7159 0.6982
vn 0.6624 0.3305 0.6723
vn 0.3123 0.9106 0.2706
vn 0.4391 0.7216 -0.5352
vn 0.3134 -0.1137 0.9428
vn 0.1945 0.3395 0.9203
vn -0.0000 0.3910 0.9204
vn -0.0000 0.1253 0.9921
vn 0.8035 -0.1975 -0.5615
vn -0.0000 0.0653 -0.9979
vn 0.2927 0.0286 -0.9558
vn 0.6198 -0.0786 -0.7808
vn -0.7120 -0.6769 -0.1870
vn -0.4027 -0.6102 -0.6823
vn 0.4547 -0.5922 -0.6652
vn 0.7871 -0.5982 -0.1502
vn -0.6286 -0.4532 0.6321
vn -0.7442 -0.6670 0.0369
vn 0.8653 -0.4985 0.0515
vn 0.8069 -0.3919 0.4419
vn 0.1544 -0.4898 0.8580
vn -0.5577 0.1218 -0.8211
vn 0.5495 0.1245 -0.8262
vn 0.6617 0.1638 -0.7317
vn -0.5020 0.0175 -0.8647
vn 0.0945 0.7495 0.6552
vn 0.6553 0.7164 0.2393
vn 0.0340 0.9082 0.4172
vn -0.5548 0.6420 0.5292
vn -0.9847 0.1737 0.0152
vn -0.5737 0.7707 0.2771
vn -0.9047 0.4246 -0.0365
vn 0.9630 0.1206 -0.2412
vn -0.9530 0.2899 0.0886
vn 0.5427 0.7037 0.4585
vn 0.9572 0.2848 0.0506
vn 0.9511 0.2985 -0.0796
vn -0.9559 0.0606 -0.2873
vn 0.0169 0.9042 0.4267
vn -0.6404 -0.7672 -0.0350
vn 0.7541 -0.6563 -0.0256
vn -0.0289 -0.4269 0.9038
vn 0.8298 -0.5355 0.1574
vn -0.7446 -0.6121 0.2663
vn -0.4900 -0.6109 -0.6218
vn 0.4355 -0.6150 -0.6574
vn -0.9484 0.0493 0.3133
vn -0.9140 -0.0247 0.4051
vn -0.5396 0.1593 -0.8267
vn 0.5660 0.1069 -0.8174
vn 0.8992 -0.2509 0.3584
vn 0.9367 -0.0866 0.3393
vn -0.0316 -0.1951 0.9803
vn 0.0144 -0.2164 0.9762
vn -0.9537 -0.0198 0.3000
vn -0.6577 0.0909 -0.7477
vn -0.0160 -0.1807 0.9834
vn -0.2560 -0.2169 0.9420
vn -0.9631 0.0727 0.2593
vn -0.9603 0.0073 0.2787
vn -0.5995 0.0296 -0.7998
vn -0.6773 0.0084 -0.7356
vn 0.1759 -0.3801 -0.9081
vn 0.5862 -0.0839 -0.8058
vn 0.9456 -0.1939 0.2613
vn 0.5890 -0.7947 0.1470
vn 0.9267 -0.0757 0.3680
vn 0.9224 -0.1058 0.3715
vn -0.0214 -0.1053 0.9942
vn -0.0125 -0.0097 0.9999
vn -0.4696 -0.0031 -0.8829
vn -0.6080 0.0373 -0.7930
vn 0.6227 -0.0073 -0.7825
vn 0.5930 -0.0676 -0.8023
vn -0.9442 -0.0230 0.3285
vn -0.9688 0.0184 0.2470
vn 0.6118 -0.0273 -0.7906
vn 0.9367 -0.2857 0.2024
vn 0.0359 -0.2271 0.9732
vn -0.0749 -0.5598 0.8252
vn -0.4312 -0.0595 0.9003
vn -0.3024 -0.1114 0.9467
vn -0.6370 0.0572 0.7687
vn -0.9575 0.1834 0.2227
vn -0.7728 0.1751 -0.6100
vn -0.2019 -0.0462 -0.9783
vn -0.1337 0.2854 -0.9490
vn -0.6845 0.2450 -0.6867
vn -0.9819 0.1384 0.1294
vn -0.7336 0.0555 0.6773
vn -0.4911 -0.2763 0.8261
vn -0.4737 -0.0058 0.8807
vn -0.7754 -0.0094 0.6314
vn -0.9968 0.0067 0.0790
vn -0.7716 0.0818 -0.6308
vn -0.0371 0.1895 -0.9812
vn -0.1079 -0.1984 -0.9742
vn -0.6661 -0.2132 -0.7148
vn -0.6823 -0.3318 0.6514
vn -0.6547 -0.2317 0.7195
vn -0.9369 -0.3495 -0.0062
vn -0.9701 -0.2306 0.0755
vn -0.9795 -0.1322 0.1522
vn -0.8299 0.5133 0.2187
vn -0.7824 0.4312 -0.4493
vn -0.8140 -0.1170 -0.5690
vn -0.6062 0.1556 0.7800
vn -0.1962 0.9424 0.2708
vn -0.1591 0.8802 -0.4472
vn -0.1737 0.7022 0.6904
vn -0.6624 0.3305 0.6723
vn -0.3123 0.9106 0.2706
vn -0.4391 0.7216 -0.5352
vn -0.3134 -0.1137 0.9428
vn -0.1945 0.3395 0.9203
vn -0.8035 -0.1975 -0.5615
vn -0.2927 0.0286 -0.9558
vn -0.6198 -0.0786 -0.7808
vn 0.7119 -0.6769 -0.1870
vn -0.7871 -0.5982 -0.1502
vn -0.4547 -0.5922 -0.6652
vn 0.4027 -0.6102 -0.6823
vn 0.6286 -0.4532 0.6321
vn -0.1544 -0.4898 0.8580
vn -0.8069 -0.3919 0.4419
vn -0.8653 -0.4985 0.0515
vn 0.7442 -0.6670 0.0368
vn 0.5700 0.1167 -0.8133
vn 0.5020 0.0175 -0.8647
vn -0.6617 0.1638 -0.7317
vn -0.5825 0.1083 -0.8056
vn -0.0945 0.7495 0.6552
vn -0.0340 0.9082 0.4172
vn -0.6553 0.7164 0.2393
vn 0.5548 0.6420 0.5292
vn 0.9844 0.1757 0.0104
vn 0.9057 0.4227 -0.0311
vn 0.5738 0.7707 0.2772
vn -0.9637 0.1195 -0.2386
vn 0.9530 0.2898 0.0885
vn -0.5427 0.7037 0.4585
vn -0.9531 0.2947 -0.0683
vn -0.9562 0.2900 0.0398
vn 0.9560 0.0604 -0.2870
vn -0.0169 0.9042 0.4267
vn -0.7541 -0.6563 -0.0256
vn 0.6404 -0.7672 -0.0350
vn 0.0289 -0.4269 0.9038
vn -0.8298 -0.5355 0.1574
vn 0.7446 -0.6121 0.2663
vn 0.4900 -0.6109 -0.6218
vn -0.4355 -0.6150 -0.6574
vn -0.6627 0.0828 0.7443
vn -0.7654 -0.6206 0.1703
vn -0.6535 -0.1303 -0.7456
vn -0.6664 0.5045 -0.5490
vn 0.5170 0.6212 -0.5889
vn 0.6796 -0.1192 -0.7239
vn 0.8632 0.0320 0.5038
vn 0.7286 0.0395 0.6838
vn 0.4128 -0.7862 -0.4599
vn -0.7014 -0.5251 -0.4820
vn -0.6701 0.6932 0.2655
vn 0.5671 0.7739 0.2819
vn 0.3939 -0.7233 0.5671
vn -0.6704 -0.4470 0.5922
vn 0.3540 0.2355 0.9051
vn 0.5226 -0.8521 0.0302
vn 0.1634 -0.5590 0.8129
vn 0.5645 -0.8092 -0.1629
vn -0.7856 0.4156 0.4583
vn -0.5619 -0.2961 -0.7724
vn -0.4609 -0.6576 -0.5959
vn -0.8283 -0.3742 0.4169
vn 0.6627 0.0828 0.7443
vn 0.6535 -0.1303 -0.7456
vn 0.7654 -0.6206 0.1703
vn -0.6796 -0.1192 -0.7239
vn -0.5170 0.6212 -0.5889
vn 0.6664 0.5045 -0.5490
vn -0.7286 0.0395 0.6838
vn -0.8632 0.0320 0.5038
vn 0.7014 -0.5251 -0.4820
vn -0.4128 -0.7862 -0.4599
vn -0.5671 0.7739 0.2819
vn 0.6701 0.6932 0.2655
vn 0.6704 -0.4470 0.5922
vn -0.3939 -0.7233 0.5671
vn -0.3540 0.2355 0.9051
vn -0.5226 -0.8521 0.0302
vn -0.5645 -0.8092 -0.1629
vn -0.1634 -0.5590 0.8129
vn 0.7856 0.4156 0.4583
vn 0.5619 -0.2961 -0.7724
vn 0.4609 -0.6576 -0.5959
vn 0.8283 -0.3742 0.4170
vn 0.2796 -0.1396 0.9499
vn 0.6614 -0.2156 0.7184
vn 0.6610 0.2397 0.7111
vn 0.3185 0.2479 0.9149
vn 0.9440 -0.0406 0.3275
vn 0.7106 -0.2594 0.6540
vn 0.3689 -0.4324 0.8228
vn 0.4966 -0.4446 0.7454
vn 0.5424 -0.0391 0.8392
vn 0.6445 -0.0339 0.7639
vn 0.5319 -0.0405 0.8459
vn 0.6649 -0.1573 0.7302
vn 0.9505 -0.1956 0.2413
vn 0.6602 -0.3834 0.6459
vn 0.8575 -0.4870 0.1656
vn 0.4595 -0.2134 0.8622
vn 0.4429 -0.7203 0.5338
vn 0.4994 -0.8657 0.0347
vn -0.0000 -0.9606 0.2780
vn -0.0000 -0.9977 -0.0680
vn -0.0000 -0.7635 0.6458
vn -0.0000 -0.2521 0.9677
vn -0.0000 -0.5213 0.8534
vn 0.6105 -0.3094 0.7291
vn -0.0000 -0.4923 0.8704
vn -0.0000 -0.8494 0.5277
vn 0.6220 -0.6263 0.4700
vn 0.9434 -0.3209 0.0837
vn 0.1025 0.1484 0.9836
vn -0.0000 -0.1185 0.9930
vn -0.0000 -0.0605 0.9982
vn 0.9414 -0.3212 0.1029
vn 0.9785 -0.1806 0.0993
vn 0.9857 -0.1535 0.0698
vn 0.9671 -0.2509 -0.0419
vn -0.0000 -0.1528 0.9883
vn 0.4555 -0.1370 0.8796
vn 0.9145 -0.0420 0.4023
vn 0.8431 -0.5013 -0.1947
vn 0.9074 0.3381 -0.2497
vn 0.7766 -0.4716 -0.4176
vn 0.9045 -0.0537 -0.4230
vn 0.3533 -0.2612 0.8983
vn 0.0886 -0.0292 0.9956
vn 0.3322 -0.2003 0.9217
vn 0.2954 0.5145 0.8050
vn 0.2978 0.1304 0.9457
vn 0.6958 0.0299 0.7176
vn 0.3561 0.9329 0.0535
vn -0.0123 0.9951 0.0976
vn 0.7123 0.6952 0.0966
vn -0.0000 0.7846 -0.6201
vn 0.3945 0.7259 -0.5635
vn 0.4187 0.0976 -0.9029
vn -0.0000 0.1458 -0.9893
vn 0.7165 0.5394 -0.4424
vn 0.7173 -0.0150 -0.6966
vn 0.4112 -0.3108 -0.8569
vn -0.0000 -0.2955 -0.9553
vn 0.7190 -0.2379 -0.6531
vn 0.8058 -0.1557 -0.5714
vn -0.0000 -0.2171 -0.9762
vn 0.7990 0.1706 -0.5766
vn -0.0000 0.2608 -0.9654
vn 0.9358 -0.1507 -0.3186
vn 0.7706 -0.3456 0.5355
vn 0.9920 0.1182 0.0449
vn 0.9433 0.1965 -0.2677
vn -0.3470 0.9345 0.0787
vn -0.2229 0.7006 0.6779
vn -0.2796 -0.1396 0.9499
vn -0.2314 -0.0724 0.9702
vn -0.4706 -0.3291 0.8187
vn -0.5473 -0.2916 0.7845
vn -0.9680 -0.1043 0.2281
vn -0.8939 -0.2366 0.3807
vn -0.4966 -0.4446 0.7454
vn -0.3689 -0.4324 0.8228
vn -0.6445 -0.0339 0.7639
vn -0.5424 -0.0391 0.8392
vn -0.5319 -0.0405 0.8459
vn -0.9505 -0.1956 0.2413
vn -0.6649 -0.1573 0.7302
vn -0.8575 -0.4870 0.1656
vn -0.6602 -0.3834 0.6459
vn -0.4595 -0.2134 0.8622
vn -0.4994 -0.8657 0.0347
vn -0.4429 -0.7203 0.5338
vn -0.6105 -0.3094 0.7291
vn -0.6220 -0.6263 0.4700
vn -0.9434 -0.3209 0.0837
vn -0.9414 -0.3212 0.1029
vn -0.9747 -0.2224 0.0199
vn -0.9857 -0.1535 0.0698
vn -0.9671 -0.2509 -0.0419
vn -0.4555 -0.1370 0.8796
vn -0.9145 -0.0420 0.4023
vn -0.9074 0.3381 -0.2497
vn -0.8431 -0.5013 -0.1947
vn -0.7766 -0.4716 -0.4176
vn -0.9045 -0.0537 -0.4230
vn -0.3619 -0.1761 0.9154
vn -0.5851 -0.2292 0.7779
vn -0.7833 0.3307 0.5265
vn -0.7037 0.7044 0.0929
vn -0.4187 0.0976 -0.9029
vn -0.3945 0.7259 -0.5635
vn -0.7173 -0.0150 -0.6966
vn -0.7165 0.5394 -0.4424
vn -0.4112 -0.3108 -0.8569
vn -0.7190 -0.2379 -0.6531
vn -0.8058 -0.1557 -0.5714
vn -0.7990 0.1706 -0.5766
vn -0.9358 -0.1507 -0.3186
vn -0.9885 0.1405 0.0552
vn -0.9692 0.1056 0.2226
vn -0.9433 0.1965 -0.2677
vn -0.9860 -0.0934 -0.1379
vn -0.6061 0.7641 0.2210
vn -0.4941 0.7627 -0.4173
vn -0.5538 0.0907 -0.8277
vn 0.4958 0.8107 -0.3112
vn 0.5648 0.3336 -0.7548
vn 0.9379 0.3314 0.1025
vn 0.5388 0.7679 0.3465
vn 0.3197 0.5118 0.7974
vn 0.4857 0.0268 0.8737
vn -0.5959 0.4330 0.6764
vn -0.6998 -0.1790 0.6916
vn -0.5208 -0.7212 -0.4568
vn 0.6253 -0.6279 -0.4635
vn 0.5751 -0.4198 0.7022
vn -0.4940 -0.5092 0.7048
vn 0.8300 -0.5515 -0.0833
vn 0.2249 -0.7013 -0.6764
vn 0.8921 0.3500 -0.2856
vn 0.4861 0.0558 0.8721
vn 0.5444 0.3081 0.7802
vn 0.9101 -0.0989 -0.4023
vn 0.6372 0.1497 0.7560
vn 0.0278 -0.2518 -0.9674
vn 0.1024 -0.1796 -0.9784
vn 0.9479 0.2265 -0.2241
vn 0.9271 -0.0075 -0.3748
vn 0.5472 -0.0944 0.8316
vn 0.3662 -0.9305 0.0107
vn 0.1505 -0.9884 -0.0213
vn -0.5897 -0.4034 0.6997
vn 0.6179 0.1598 0.7699
vn -0.6902 -0.0533 0.7216
vn -0.9045 -0.2734 -0.3273
vn -0.9155 -0.2348 -0.3266
vn -0.2280 -0.9466 0.2277
vn -0.4988 -0.8140 -0.2976
vn 0.6010 -0.7060 0.3748
vn -0.0001 -0.9226 -0.3859
vn -0.9081 -0.2236 -0.3541
vn 0.1130 0.1959 -0.9741
vn 0.1793 -0.9046 -0.3866
vn 0.3846 -0.8905 -0.2431
vn 0.9687 0.2275 -0.0994
vn -0.5999 -0.0305 0.7995
vn -0.6873 -0.0506 0.7246
vn 0.0308 -0.2918 -0.9560
vn -0.8332 -0.3579 -0.4216
vn -0.5562 -0.3726 0.7429
vn -0.8835 -0.3231 -0.3393
vn 0.9634 0.2610 -0.0613
vn -0.8877 -0.3018 -0.3476
vn 0.0099 0.2385 -0.9711
vn 0.0746 0.1293 -0.9888
vn 0.9860 -0.0934 -0.1379
vn 0.5538 0.0907 -0.8277
vn 0.4941 0.7627 -0.4173
vn 0.6061 0.7641 0.2210
vn -0.5648 0.3336 -0.7548
vn -0.4958 0.8107 -0.3112
vn -0.9379 0.3314 0.1025
vn -0.3197 0.5118 0.7974
vn -0.5388 0.7679 0.3465
vn -0.4857 0.0268 0.8737
vn 0.6998 -0.1790 0.6916
vn 0.5959 0.4330 0.6764
vn 0.5208 -0.7212 -0.4568
vn 0.4940 -0.5092 0.7048
vn -0.5751 -0.4198 0.7022
vn -0.6253 -0.6279 -0.4635
vn -0.8300 -0.5515 -0.0833
vn -0.2249 -0.7013 -0.6764
vn -0.8921 0.3500 -0.2856
vn -0.5444 0.3081 0.7802
vn -0.4861 0.0558 0.8721
vn -0.6372 0.1497 0.7560
vn -0.9101 -0.0989 -0.4023
vn -0.0278 -0.2518 -0.9674
vn -0.9271 -0.0075 -0.3748
vn -0.9479 0.2265 -0.2241
vn -0.1024 -0.1796 -0.9784
vn -0.5472 -0.0944 0.8316
vn 0.5897 -0.4034 0.6997
vn -0.1505 -0.9884 -0.0213
vn -0.3662 -0.9305 0.0108
vn -0.6179 0.1598 0.7699
vn 0.6902 -0.0533 0.7216
vn 0.9045 -0.2734 -0.3273
vn 0.9155 -0.2348 -0.3266
vn 0.2280 -0.9466 0.2278
vn 0.4988 -0.8140 -0.2976
vn -0.6010 -0.7060 0.3748
vn 0.9081 -0.2236 -0.3541
vn 0.0001 -0.9225 -0.3859
vn -0.1130 0.1959 -0.9741
vn -0.9687 0.2275 -0.0994
vn -0.3846 -0.8905 -0.2432
vn -0.1792 -0.9046 -0.3867
vn 0.6873 -0.0506 0.7246
vn 0.5999 -0.0305 0.7995
vn -0.0308 -0.2918 -0.9560
vn 0.8332 -0.3579 -0.4216
vn 0.5562 -0.3726 0.7429
vn 0.8835 -0.3231 -0.3393
vn -0.9634 0.2610 -0.0613
vn 0.8877 -0.3018 -0.3476
vn -0.0746 0.1293 -0.9888
vn -0.0099 0.2385 -0.9711
vt 0.327200 0.250120
vt 0.283832 0.247196
vt 0.330796 0.286812
vt 0.243955 0.242583
vt 0.199276 0.234175
vt 0.194790 0.265859
vt 0.106611 0.253563
vt 0.148572 0.257576
vt 0.137911 0.292741
vt 0.100719 0.287940
vt 0.330008 0.319794
vt 0.282274 0.318199
vt 0.060249 0.245387
vt 0.057633 0.278700
vt 0.088214 0.413446
vt 0.157431 0.410249
vt 0.161594 0.541993
vt 0.077296 0.539200
vt 0.293643 0.417421
vt 0.240005 0.408098
vt 0.243727 0.536538
vt 0.301754 0.539159
vt 0.026689 0.396031
vt 0.007247 0.505147
vt 0.345730 0.405063
vt 0.362357 0.537458
vt 0.179577 0.383877
vt 0.176226 0.491561
vt 0.071305 0.085262
vt 0.107936 0.087985
vt 0.111613 0.179762
vt 0.054893 0.174151
vt 0.274358 0.092005
vt 0.240185 0.089596
vt 0.240797 0.178996
vt 0.282603 0.186114
vt 0.142128 0.089469
vt 0.160728 0.183163
vt 0.212743 0.083299
vt 0.196860 0.164038
vt 0.313835 0.087629
vt 0.325027 0.178554
vt 0.242778 0.310626
vt 0.193944 0.298614
vt 0.043609 0.307684
vt 0.095143 0.322422
vt 0.141768 0.325881
vt 0.447808 0.595283
vt 0.431192 0.525128
vt 0.420773 0.524619
vt 0.420773 0.591970
vt 0.156673 0.545343
vt 0.195699 0.593598
vt 0.165516 0.596589
vt 0.143966 0.634854
vt 0.174297 0.636985
vt 0.175365 0.676230
vt 0.143965 0.673647
vt 0.143966 0.546178
vt 0.143966 0.593585
vt 0.205718 0.644376
vt 0.273227 0.650479
vt 0.275591 0.598837
vt 0.492618 0.652060
vt 0.542873 0.660753
vt 0.553082 0.604900
vt 0.499301 0.599302
vt 0.458582 0.640289
vt 0.420773 0.641057
vt 0.420773 0.695219
vt 0.448466 0.696051
vt 0.481905 0.697688
vt 0.528286 0.707623
vt 0.268866 0.694470
vt 0.210306 0.684158
vt 0.143965 0.743538
vt 0.173303 0.741897
vt 0.175972 0.806487
vt 0.143965 0.797337
vt 0.214549 0.729906
vt 0.266621 0.742219
vt 0.492525 0.760871
vt 0.522425 0.761247
vt 0.450601 0.758204
vt 0.420773 0.756992
vt 0.420773 0.813364
vt 0.457815 0.821263
vt 0.490798 0.826251
vt 0.222056 0.806687
vt 0.270632 0.787600
vt 0.278320 0.804117
vt 0.217275 0.830549
vt 0.551829 0.869826
vt 0.505189 0.889529
vt 0.516199 0.960255
vt 0.549252 0.953210
vt 0.268543 0.844854
vt 0.216072 0.862629
vt 0.193002 0.946542
vt 0.183867 0.984284
vt 0.143964 0.993469
vt 0.143964 0.949595
vt 0.182949 0.910693
vt 0.143964 0.906422
vt 0.245423 0.907259
vt 0.264619 0.928513
vt 0.225777 0.938457
vt 0.259364 0.963527
vt 0.230802 0.976430
vt 0.162361 0.823748
vt 0.157165 0.866642
vt 0.143964 0.867693
vt 0.143964 0.837175
vt 0.532166 0.830970
vt 0.502555 0.855260
vt 0.420773 0.909948
vt 0.420773 0.985395
vt 0.454431 0.988284
vt 0.460334 0.905834
vt 0.483475 0.896972
vt 0.491031 0.968066
vt 0.527979 0.811905
vt 0.271870 0.921191
vt 0.931936 0.136954
vt 0.941553 0.111204
vt 0.968851 0.111483
vt 0.978210 0.137428
vt 0.930285 0.264385
vt 0.929178 0.214472
vt 0.981438 0.215007
vt 0.981438 0.249352
vt 0.955810 0.267203
vt 0.830033 0.123766
vt 0.794956 0.133144
vt 0.784999 0.107830
vt 0.825497 0.100208
vt 0.729242 0.025030
vt 0.760443 0.079667
vt 0.724326 0.082011
vt 0.781762 0.076540
vt 0.824693 0.070295
vt 0.666893 0.010785
vt 0.730273 0.007510
vt 0.678073 0.027747
vt 0.891260 0.096542
vt 0.922954 0.100297
vt 0.864832 0.125126
vt 0.962250 0.027805
vt 0.989526 0.038518
vt 0.975651 0.061886
vt 0.929285 0.091141
vt 0.975218 0.096368
vt 0.787676 0.007486
vt 0.836673 0.007967
vt 0.844405 0.041262
vt 0.789937 0.025816
vt 0.892167 0.030365
vt 0.930867 0.061302
vt 0.849799 0.095355
vt 0.776759 0.152019
vt 0.726708 0.136299
vt 0.932777 0.172018
vt 0.977019 0.172471
vt 0.107059 0.004208
vt 0.139979 0.004566
vt 0.857427 0.069919
vt 0.894620 0.073389
vt 0.898226 0.007101
vt 0.948395 0.005819
vt 0.989972 0.007409
vt 0.677657 0.156988
vt 0.679558 0.084917
vt 0.073514 0.003727
vt 0.236064 0.006640
vt 0.206961 0.004193
vt 0.770827 0.032962
vt 0.782415 0.015488
vt 0.269468 0.005029
vt 0.309915 0.001801
vt 0.393737 0.595283
vt 0.410353 0.525128
vt 0.131259 0.545343
vt 0.122416 0.596589
vt 0.092233 0.593598
vt 0.112566 0.676230
vt 0.113635 0.636985
vt 0.082213 0.644375
vt 0.014704 0.650477
vt 0.012341 0.598836
vt 0.348927 0.652060
vt 0.342245 0.599302
vt 0.288464 0.604900
vt 0.298673 0.660753
vt 0.382963 0.640289
vt 0.393080 0.696051
vt 0.359641 0.697688
vt 0.313260 0.707623
vt 0.019064 0.694469
vt 0.077625 0.684158
vt 0.111957 0.806486
vt 0.114627 0.741897
vt 0.073381 0.729905
vt 0.021309 0.742218
vt 0.349021 0.760871
vt 0.319121 0.761247
vt 0.390944 0.758204
vt 0.383731 0.821263
vt 0.350748 0.826251
vt 0.065873 0.806686
vt 0.070654 0.830548
vt 0.009609 0.804116
vt 0.017297 0.787599
vt 0.289716 0.869826
vt 0.292294 0.953210
vt 0.325347 0.960255
vt 0.336357 0.889529
vt 0.071857 0.862628
vt 0.019386 0.844853
vt 0.094926 0.946541
vt 0.104061 0.984284
vt 0.104980 0.910693
vt 0.042505 0.907259
vt 0.062150 0.938457
vt 0.023309 0.928512
vt 0.057126 0.976429
vt 0.028564 0.963526
vt 0.125568 0.823748
vt 0.130764 0.866642
vt 0.309379 0.830970
vt 0.338991 0.855260
vt 0.381212 0.905834
vt 0.387114 0.988284
vt 0.350515 0.968066
vt 0.358070 0.896972
vt 0.313567 0.811905
vt 0.016058 0.921190
vt 0.729242 0.025030
vt 0.724326 0.082011
vt 0.666893 0.010786
vt 0.730273 0.007510
vt 0.929288 0.091137
vt 0.726709 0.136299
vt 0.776759 0.152019
vt 0.677658 0.156988
vt 0.679558 0.084917
vt 0.770827 0.032963
vt 0.782415 0.015488
vt 0.938681 0.077554
vt 0.989378 0.085858
vt 0.322216 0.008384
vt 0.371251 0.007634
vt 0.371251 0.051501
vt 0.833096 0.245458
vt 0.833220 0.259105
vt 0.769282 0.233025
vt 0.764712 0.261577
vt 0.764712 0.333177
vt 0.746807 0.332636
vt 0.747682 0.267174
vt 0.702408 0.280922
vt 0.702911 0.264301
vt 0.683281 0.276006
vt 0.685041 0.258813
vt 0.743020 0.196412
vt 0.754076 0.197118
vt 0.848077 0.153539
vt 0.876983 0.152234
vt 0.876983 0.231246
vt 0.849097 0.230305
vt 0.745423 0.180034
vt 0.704513 0.187661
vt 0.706919 0.171283
vt 0.777835 0.180970
vt 0.821309 0.183235
vt 0.693631 0.189479
vt 0.773762 0.344615
vt 0.848318 0.365556
vt 0.759162 0.392337
vt 0.830569 0.305908
vt 0.787471 0.298282
vt 0.748477 0.362679
vt 0.711752 0.409626
vt 0.707035 0.396689
vt 0.712252 0.335863
vt 0.838898 0.326255
vt 0.856971 0.284296
vt 0.874667 0.296280
vt 0.737309 0.349096
vt 0.722641 0.346253
vt 0.842215 0.268461
vt 0.698490 0.386138
vt 0.695818 0.405155
vt 0.687273 0.394602
vt 0.876225 0.255415
vt 0.888066 0.262792
vt 0.865131 0.246765
vt 0.341772 0.070350
vt 0.314933 0.046161
vt 0.314899 0.046225
vt 0.371217 0.051565
vt 0.322182 0.008448
vt 0.341738 0.070414
vt 0.371217 0.007698
vt 0.698870 0.847676
vt 0.747380 0.846253
vt 0.743573 0.892732
vt 0.700370 0.887367
vt 0.767123 0.825038
vt 0.771194 0.886443
vt 0.700669 0.831465
vt 0.739270 0.832590
vt 0.696955 0.813107
vt 0.742255 0.805224
vt 0.682218 0.818840
vt 0.742178 0.766456
vt 0.766341 0.776340
vt 0.731509 0.729057
vt 0.750841 0.733289
vt 0.703331 0.764540
vt 0.702541 0.684765
vt 0.710735 0.683405
vt 0.675687 0.681582
vt 0.675687 0.678134
vt 0.675687 0.758877
vt 0.675687 0.733205
vt 0.675687 0.689220
vt 0.687323 0.774323
vt 0.675687 0.772880
vt 0.694466 0.669333
vt 0.671708 0.668427
vt 0.671708 0.629173
vt 0.703913 0.628924
vt 0.736812 0.670137
vt 0.755285 0.628711
vt 0.675687 0.883969
vt 0.675687 0.844677
vt 0.675687 0.821533
vt 0.807491 0.762281
vt 0.804771 0.727708
vt 0.858451 0.728463
vt 0.848636 0.759364
vt 0.829172 0.806758
vt 0.849523 0.819018
vt 0.845557 0.825544
vt 0.671708 0.565276
vt 0.702176 0.564668
vt 0.735265 0.565672
vt 0.883555 0.776615
vt 0.888795 0.815292
vt 0.897872 0.768139
vt 0.903409 0.818532
vt 0.706861 0.933167
vt 0.675687 0.933026
vt 0.741749 0.924836
vt 0.732934 0.965117
vt 0.675687 0.982551
vt 0.770196 0.964693
vt 0.881092 0.933798
vt 0.889909 0.965937
vt 0.782183 0.947536
vt 0.797031 0.916867
vt 0.866833 0.897595
vt 0.964703 0.922724
vt 0.942928 0.904758
vt 0.963188 0.852107
vt 0.992759 0.860301
vt 0.920907 0.886858
vt 0.933729 0.845347
vt 0.973034 0.790471
vt 0.995311 0.792371
vt 0.943292 0.790886
vt 0.925573 0.740748
vt 0.983298 0.742176
vt 0.931980 0.658057
vt 0.995268 0.664728
vt 0.865878 0.655696
vt 0.898241 0.842786
vt 0.814802 0.866210
vt 0.855269 0.866726
vt 0.898522 0.867336
vt 0.788562 0.907618
vt 0.797345 0.799424
vt 0.808807 0.846276
vt 0.652504 0.847676
vt 0.651004 0.887367
vt 0.607801 0.892732
vt 0.603994 0.846253
vt 0.580180 0.886443
vt 0.584251 0.825038
vt 0.612104 0.832590
vt 0.650705 0.831465
vt 0.609119 0.805224
vt 0.654419 0.813107
vt 0.669156 0.818840
vt 0.585033 0.776340
vt 0.609196 0.766456
vt 0.600533 0.733289
vt 0.619865 0.729057
vt 0.648043 0.764540
vt 0.640639 0.683405
vt 0.648833 0.684765
vt 0.664051 0.774323
vt 0.648951 0.669333
vt 0.639503 0.628924
vt 0.606604 0.670137
vt 0.588131 0.628711
vt 0.641240 0.564668
vt 0.608151 0.565672
vt 0.644513 0.933167
vt 0.609625 0.924836
vt 0.618440 0.965117
vt 0.581178 0.964693
vt 0.789078 0.990492
vt 0.562812 0.907618
vt 0.689426 0.443194
vt 0.689397 0.510890
vt 0.640061 0.496593
vt 0.643236 0.445426
vt 0.591806 0.498854
vt 0.601902 0.450056
vt 0.533833 0.432924
vt 0.513347 0.490950
vt 0.478991 0.467840
vt 0.472291 0.423732
vt 0.430638 0.467604
vt 0.426882 0.417192
vt 0.567065 0.095457
vt 0.536848 0.093978
vt 0.537915 0.006950
vt 0.567065 0.005883
vt 0.485197 0.510150
vt 0.431267 0.517236
vt 0.560630 0.381372
vt 0.614601 0.385195
vt 0.528802 0.241595
vt 0.480290 0.261820
vt 0.482781 0.209958
vt 0.518194 0.008342
vt 0.521195 0.073841
vt 0.476245 0.077572
vt 0.469787 0.014342
vt 0.611489 0.149728
vt 0.610401 0.206355
vt 0.562784 0.206780
vt 0.564662 0.136748
vt 0.485640 0.314552
vt 0.477439 0.368867
vt 0.432075 0.359121
vt 0.431469 0.305695
vt 0.533832 0.133949
vt 0.525970 0.199173
vt 0.485676 0.132797
vt 0.442780 0.079613
vt 0.447032 0.014474
vt 0.663935 0.149676
vt 0.660474 0.209743
vt 0.432030 0.360885
vt 0.371128 0.422871
vt 0.379678 0.360479
vt 0.528237 0.363285
vt 0.477187 0.370925
vt 0.673719 0.383322
vt 0.614673 0.385100
vt 0.477201 0.370677
vt 0.432075 0.359121
vt 0.379909 0.358645
vt 0.386474 0.302057
vt 0.614588 0.385207
vt 0.612427 0.331853
vt 0.614489 0.383243
vt 0.560346 0.379402
vt 0.552915 0.332126
vt 0.439137 0.204709
vt 0.435546 0.145297
vt 0.545426 0.453738
vt 0.560582 0.381566
vt 0.630284 0.553226
vt 0.578603 0.538787
vt 0.610920 0.077463
vt 0.603811 0.006880
vt 0.628333 0.009373
vt 0.555465 0.515325
vt 0.389129 0.488785
vt 0.584505 0.074010
vt 0.394780 0.148887
vt 0.400217 0.077538
vt 0.637601 0.077102
vt 0.398614 0.015073
vt 0.439576 0.258287
vt 0.400526 0.228580
vt 0.520303 0.270878
vt 0.660520 0.269570
vt 0.610499 0.280638
vt 0.610370 0.248976
vt 0.660273 0.238978
vt 0.398067 0.254487
vt 0.399879 0.202412
vt 0.560592 0.283258
vt 0.566069 0.251813
vt 0.670343 0.319614
vt 0.673481 0.381425
vt 0.614489 0.383243
vt 0.528748 0.316875
vt 0.528033 0.361162
vt 0.477439 0.368867
vt 0.477091 0.370668
vt 0.432030 0.360885
s 1
f 27/1/1 9/2/2 10/3/3
f 8/4/4 26/5/5 7/6/6
f 28/7/7 27/8/1 10/9/3 6/10/8
f 32/11/9 10/3/3 30/12/10
f 26/13/5 28/7/7 6/10/8 7/14/6
f 22/15/11 21/16/12 15/17/13 11/18/14
f 24/19/15 23/20/16 13/21/17 14/22/18
f 25/23/19 22/15/11 11/18/14 12/24/20
f 21/25/12 24/19/15 14/22/18 15/26/13
f 23/20/16 25/27/19 12/28/20 13/21/17
f 93/29/21 97/30/22 20/31/23 18/32/24
f 94/33/25 98/34/26 19/35/27 16/36/28
f 97/30/22 99/37/29 17/38/30 20/31/23
f 98/34/26 93/39/21 18/40/24 19/35/27
f 99/41/29 94/33/25 16/36/28 17/42/30
f 33/43/31 31/44/32 25/27/19 23/20/16
f 32/11/9 30/12/10 24/19/15 21/25/12
f 31/45/32 29/46/33 22/15/11 25/23/19
f 30/12/10 33/43/31 23/20/16 24/19/15
f 29/46/33 32/47/9 21/16/12 22/15/11
f 18/32/24 20/31/23 28/7/7 26/13/5
f 16/36/28 19/35/27 8/4/4 9/2/2
f 20/31/23 17/38/30 27/8/1 28/7/7
f 19/35/27 18/40/24 26/5/5 8/4/4
f 17/42/30 16/36/28 9/2/2 27/1/1
f 6/10/8 10/9/3 32/47/9 29/46/33
f 9/2/2 8/4/4 33/43/31 30/12/10
f 7/14/6 6/10/8 29/46/33 31/45/32
f 10/3/3 9/2/2 30/12/10
f 7/6/6 31/44/32 33/43/31
f 8/4/4 7/6/6 33/43/31
f 13/48/17 12/49/20 134/50/34 135/51/35
f 12/52/20 11/53/14 34/54/36
f 145/55/37 40/56/38 35/57/39 137/58/40
f 134/59/34 12/52/20 34/54/36 133/60/41
f 41/61/42 40/56/38 11/53/14
f 42/62/43 41/61/42 11/53/14 15/63/13
f 43/64/44 42/65/43 15/66/13 14/67/18
f 44/68/45 43/64/44 14/67/18
f 150/69/46 44/68/45 13/48/17 135/51/35
f 143/70/47 39/71/48 44/68/45 150/69/46
f 38/72/49 43/64/44 44/68/45
f 38/72/49 37/73/50 42/65/43 43/64/44
f 37/74/50 36/75/51 41/61/42 42/62/43
f 36/75/51 35/57/39 40/56/38 41/61/42
f 34/54/36 11/53/14 40/56/38
f 13/48/17 44/68/45 14/67/18
f 39/71/48 38/72/49 44/68/45
f 159/76/52 50/77/53 45/78/54 151/79/55
f 51/80/56 50/77/53 35/57/39 36/75/51
f 52/81/57 51/80/56 36/75/51 37/74/50
f 53/82/58 52/83/57 37/73/50 38/72/49
f 54/84/59 53/82/58 38/72/49 39/71/48
f 164/85/60 54/84/59 39/71/48 143/70/47
f 157/86/61 49/87/62 54/84/59 164/85/60
f 49/87/62 48/88/63 53/82/58 54/84/59
f 46/89/64 62/90/65 71/91/66 63/92/67
f 46/89/64 51/80/56 52/81/57 62/90/65
f 46/89/64 45/78/54 50/77/53 51/80/56
f 137/58/40 35/57/39 50/77/53 159/76/52
f 47/93/68 61/94/69 57/95/70 56/96/71
f 63/92/67 47/97/68 67/98/72
f 59/99/73 58/100/74 170/101/75 169/102/76
f 60/103/77 59/99/73 169/102/76 168/104/78
f 55/105/79 56/106/71 68/107/80 60/103/77
f 56/106/71 57/108/70 69/109/81 68/107/80
f 64/110/82 66/111/83 182/112/84 178/113/85
f 63/92/67 67/98/72 66/111/83 64/110/82
f 45/78/54 64/110/82 151/79/55
f 64/110/82 178/113/85 151/79/55
f 63/92/67 64/110/82 45/78/54 46/89/64
f 71/114/66 72/115/86 61/94/69 47/93/68
f 179/116/87 170/117/75 58/118/74 65/119/88
f 157/86/61 179/116/87 65/119/88 49/87/62
f 57/95/70 61/94/69 70/120/89 69/121/81
f 49/87/62 65/119/88 70/120/89
f 53/82/58 48/88/63 62/122/65 52/83/57
f 63/92/67 71/91/66 47/97/68
f 182/112/84 66/111/83 60/103/77 168/104/78
f 66/111/83 67/98/72 60/103/77
f 67/98/72 47/97/68 56/123/71 55/105/79
f 68/107/80 69/109/81 58/100/74 59/99/73
f 69/121/81 65/119/88 58/118/74
f 60/103/77 68/107/80 59/99/73
f 60/103/77 67/98/72 55/105/79
f 69/121/81 70/120/89 65/119/88
f 70/120/89 61/94/69 72/115/86 49/87/62
f 133/60/41 34/54/36 40/56/38 145/55/37
f 48/88/63 72/115/86 71/114/66 62/122/65
f 49/87/62 72/115/86 48/88/63
f 88/124/90 75/125/91 76/126/92 87/127/93
f 73/128/94 77/129/95 78/130/96 74/131/97 96/132/98
f 3/133/99 219/134/100 82/135/101 81/136/102
f 95/137/103 84/138/104 228/139/105
f 76/140/92 75/141/91 81/136/102 82/135/101
f 73/142/94 96/143/98 95/137/103 79/144/106
f 89/145/107 83/146/108 216/147/109
f 92/148/110 82/149/101 219/150/100
f 226/151/111 79/152/106 83/146/108
f 74/153/97 78/154/96 84/155/104 80/156/112
f 84/155/104 91/157/113 220/158/114
f 90/159/115 89/145/107 216/147/109
f 84/138/104 220/160/114 217/161/116
f 77/129/95 86/162/117 85/163/118 78/130/96
f 81/136/102 90/159/115 3/133/99
f 92/148/110 219/150/100 220/158/114
f 1/164/119 5/165/120 99/37/29 97/30/22
f 86/162/117 88/124/90 87/127/93 85/163/118
f 88/166/90 86/167/117 89/145/107 90/159/115
f 89/145/107 226/151/111 83/146/108
f 75/141/91 88/166/90 90/159/115 81/136/102
f 85/168/118 87/169/93 92/148/110 91/157/113
f 78/154/96 85/168/118 91/157/113 84/155/104
f 87/169/93 76/170/92 82/149/101 92/148/110
f 216/171/109 83/172/108 217/161/116
f 228/139/105 84/138/104 217/161/116
f 2/173/121 1/164/119 97/30/22 93/29/21
f 218/174/122 2/175/121 93/39/21 98/34/26
f 84/138/104 95/137/103 80/176/112
f 95/137/103 96/143/98 74/177/97 80/176/112
f 4/178/123 218/174/122 98/34/26 94/33/25
f 5/179/120 4/178/123 94/33/25 99/41/29
f 126/1/124 109/3/125 108/2/126
f 107/4/127 106/6/128 125/5/129
f 127/7/130 105/10/131 109/9/125 126/8/124
f 131/11/132 129/12/133 109/3/125
f 125/13/129 106/14/128 105/10/131 127/7/130
f 121/15/134 110/18/135 114/17/136 120/16/137
f 123/19/138 113/22/139 112/21/140 122/20/141
f 124/23/142 111/24/143 110/18/135 121/15/134
f 120/25/137 114/26/136 113/22/139 123/19/138
f 122/20/141 112/21/140 111/28/143 124/27/142
f 209/29/144 117/32/145 119/31/146 213/30/147
f 210/33/148 115/36/149 118/35/150 214/34/151
f 213/30/147 119/31/146 116/38/152 215/37/153
f 214/34/151 118/35/150 117/40/145 209/39/144
f 215/41/153 116/42/152 115/36/149 210/33/148
f 132/43/154 122/20/141 124/27/142 130/44/155
f 131/11/132 120/25/137 123/19/138 129/12/133
f 130/45/155 124/23/142 121/15/134 128/46/156
f 129/12/133 123/19/138 122/20/141 132/43/154
f 128/46/156 121/15/134 120/16/137 131/47/132
f 117/32/145 125/13/129 127/7/130 119/31/146
f 115/36/149 108/2/126 107/4/127 118/35/150
f 119/31/146 127/7/130 126/8/124 116/38/152
f 118/35/150 107/4/127 125/5/129 117/40/145
f 116/42/152 126/1/124 108/2/126 115/36/149
f 105/10/131 128/46/156 131/47/132 109/9/125
f 108/2/126 129/12/133 132/43/154 107/4/127
f 106/14/128 130/45/155 128/46/156 105/10/131
f 109/3/125 129/12/133 108/2/126
f 106/6/128 132/43/154 130/44/155
f 107/4/127 132/43/154 106/6/128
f 112/180/140 135/51/35 134/50/34 111/181/143
f 111/182/143 136/183/157 110/184/135
f 145/55/37 137/58/40 138/185/158 144/186/159
f 134/59/34 133/60/41 136/183/157 111/182/143
f 146/187/160 110/184/135 144/186/159
f 147/188/161 114/189/136 110/184/135 146/187/160
f 148/190/162 113/191/139 114/192/136 147/193/161
f 149/194/163 113/191/139 148/190/162
f 150/69/46 135/51/35 112/180/140 149/194/163
f 143/70/47 150/69/46 149/194/163 142/195/164
f 141/196/165 149/194/163 148/190/162
f 141/196/165 148/190/162 147/193/161 140/197/166
f 140/198/166 147/188/161 146/187/160 139/199/167
f 139/199/167 146/187/160 144/186/159 138/185/158
f 136/183/157 144/186/159 110/184/135
f 112/180/140 113/191/139 149/194/163
f 142/195/164 149/194/163 141/196/165
f 159/76/52 151/79/55 152/200/168 158/201/169
f 160/202/170 139/199/167 138/185/158 158/201/169
f 161/203/171 140/198/166 139/199/167 160/202/170
f 162/204/172 141/196/165 140/197/166 161/205/171
f 163/206/173 142/195/164 141/196/165 162/204/172
f 164/85/60 143/70/47 142/195/164 163/206/173
f 157/86/61 164/85/60 163/206/173 156/207/174
f 156/207/174 163/206/173 162/204/172 155/208/175
f 153/209/176 176/210/177 187/211/178 175/212/179
f 153/209/176 175/212/179 161/203/171 160/202/170
f 153/209/176 160/202/170 158/201/169 152/200/168
f 137/58/40 159/76/52 158/201/169 138/185/158
f 154/213/180 166/214/181 167/215/182 174/216/183
f 176/210/177 183/217/184 154/218/180
f 172/219/185 169/102/76 170/101/75 171/220/186
f 173/221/187 168/104/78 169/102/76 172/219/185
f 165/222/188 173/221/187 184/223/189 166/224/181
f 166/224/181 184/223/189 185/225/190 167/226/182
f 177/227/191 178/113/85 182/112/84 181/228/192
f 176/210/177 177/227/191 181/228/192 183/217/184
f 152/200/168 151/79/55 177/227/191
f 177/227/191 151/79/55 178/113/85
f 176/210/177 153/209/176 152/200/168 177/227/191
f 187/229/178 154/213/180 174/216/183 188/230/193
f 179/116/87 180/231/194 171/232/186 170/117/75
f 157/86/61 156/207/174 180/231/194 179/116/87
f 167/215/182 185/233/190 186/234/195 174/216/183
f 156/207/174 186/234/195 180/231/194
f 162/204/172 161/205/171 175/235/179 155/208/175
f 176/210/177 154/218/180 187/211/178
f 182/112/84 168/104/78 173/221/187 181/228/192
f 181/228/192 173/221/187 183/217/184
f 183/217/184 165/222/188 166/236/181 154/218/180
f 184/223/189 172/219/185 171/220/186 185/225/190
f 185/233/190 171/232/186 180/231/194
f 173/221/187 172/219/185 184/223/189
f 173/221/187 165/222/188 183/217/184
f 185/233/190 180/231/194 186/234/195
f 186/234/195 156/207/174 188/230/193 174/216/183
f 133/60/41 145/55/37 144/186/159 136/183/157
f 155/208/175 175/235/179 187/229/178 188/230/193
f 156/207/174 155/208/175 188/230/193
f 204/124/196 203/127/197 192/126/198 191/125/199
f 189/128/200 212/132/201 190/131/202 194/130/203 193/129/204
f 223/133/205 197/136/206 198/135/207 224/134/208
f 211/237/209 229/238/210 200/138/211
f 192/140/198 198/135/207 197/136/206 191/141/199
f 189/239/200 195/144/212 211/237/209 212/240/201
f 205/145/213 221/147/214 199/146/215
f 208/148/216 224/150/208 198/149/207
f 227/241/217 199/146/215 195/152/212
f 190/153/202 196/156/218 200/155/211 194/154/203
f 200/155/211 225/158/219 207/157/220
f 206/159/221 223/133/205 221/147/214 205/145/213
f 200/138/211 222/242/222 225/243/219
f 193/129/204 194/130/203 201/163/223 202/162/224
f 197/136/206 223/133/205 206/159/221
f 207/157/220 225/158/219 224/150/208 208/148/216
f 100/164/225 213/30/147 215/37/153 104/165/226
f 202/162/224 201/163/223 203/127/197 204/124/196
f 204/166/196 206/159/221 205/145/213 202/167/224
f 205/145/213 199/146/215 227/241/217
f 191/141/199 197/136/206 206/159/221 204/166/196
f 201/168/223 207/157/220 208/148/216 203/169/197
f 194/154/203 200/155/211 207/157/220 201/168/223
f 203/169/197 208/148/216 198/149/207 192/170/198
f 221/244/214 222/242/222 199/245/215
f 222/242/222 200/138/211 229/238/210
f 101/173/227 209/29/144 213/30/147 100/164/225
f 102/174/228 214/34/151 209/39/144 101/175/227
f 200/138/211 196/246/218 211/237/209
f 211/237/209 196/246/218 190/247/202 212/240/201
f 103/178/229 210/33/148 214/34/151 102/174/228
f 104/179/226 215/41/153 210/33/148 103/178/229
f 91/157/113 92/148/110 220/158/114
f 3/133/99 90/159/115 216/147/109
f 86/167/117 77/248/95 226/151/111 89/145/107
f 77/248/95 73/249/94 79/152/106 226/151/111
f 202/167/224 205/145/213 227/241/217 193/248/204
f 193/248/204 227/241/217 195/152/212 189/249/200
f 83/172/108 228/139/105 217/161/116
f 79/144/106 95/137/103 228/139/105 83/172/108
f 199/245/215 222/242/222 229/238/210
f 195/144/212 199/245/215 229/238/210 211/237/209
f 5/250/120 1/251/119 2/252/121
f 230/253/230 243/254/231 232/255/232
f 232/256/232 233/257/233 237/258/234 236/259/235
f 236/259/235 242/260/236 234/261/237
f 234/261/237 242/260/236 243/262/231 230/263/230
f 232/256/232 236/259/235 241/264/238 239/265/239
f 237/266/234 233/267/233 231/268/240 235/269/241
f 239/270/239 241/264/238 240/271/242 238/272/243
f 230/253/230 232/255/232 239/273/239 238/274/243
f 236/259/235 234/261/237 240/271/242 241/264/238
f 234/261/237 230/263/230 238/275/243 240/271/242
f 242/276/236 235/277/241 246/278/244
f 232/255/232 243/254/231 231/279/240 233/280/233
f 247/281/245 246/278/244 251/282/246 248/283/247
f 242/260/236 236/259/235 237/258/234 235/284/241
f 235/285/241 231/279/240 244/286/248 246/287/244
f 243/288/231 242/276/236 247/281/245 245/289/249
f 231/279/240 243/254/231 245/290/249
f 249/291/250 248/283/247 251/292/246 250/293/251
f 245/289/249 247/281/245 248/283/247 249/291/250
f 246/287/244 244/286/248 250/294/251 251/295/246
f 244/286/248 245/290/249 249/296/250 250/294/251
f 244/286/248 231/279/240 245/290/249
f 247/281/245 242/276/236 246/278/244
f 252/253/252 254/255/253 265/254/254
f 254/256/253 258/259/255 259/258/256 255/257/257
f 258/259/255 256/261/258 264/260/259
f 256/261/258 252/263/252 265/262/254 264/260/259
f 254/256/253 261/265/260 263/264/261 258/259/255
f 259/266/256 257/269/262 253/268/263 255/267/257
f 261/270/260 260/272/264 262/271/265 263/264/261
f 252/253/252 260/274/264 261/273/260 254/255/253
f 258/259/255 263/264/261 262/271/265 256/261/258
f 256/261/258 262/271/265 260/275/264 252/263/252
f 264/276/259 268/278/266 257/277/262
f 254/255/253 255/280/257 253/279/263 265/254/254
f 269/281/267 270/283/268 273/282/269 268/278/266
f 264/260/259 257/284/262 259/258/256 258/259/255
f 257/285/262 268/287/266 266/286/270 253/279/263
f 265/288/254 267/289/271 269/281/267 264/276/259
f 253/279/263 267/290/271 265/254/254
f 271/291/272 272/293/273 273/292/269 270/283/268
f 267/289/271 271/291/272 270/283/268 269/281/267
f 268/287/266 273/295/269 272/294/273 266/286/270
f 266/286/270 272/294/273 271/296/272 267/290/271
f 266/286/270 267/290/271 253/279/263
f 269/281/267 268/278/266 264/276/259
f 2/252/121 218/297/122 4/298/123
f 4/298/123 5/250/120 2/252/121
f 103/299/229 101/300/227 104/301/226
f 102/302/228 101/300/227 103/299/229
f 101/300/227 100/303/225 104/301/226
f 277/304/274 276/305/275 275/306/276 274/307/277
f 275/306/276 276/305/275 279/308/278 278/309/279
f 276/305/275 277/304/274 281/310/280 280/311/281
f 279/308/278 276/305/275 280/311/281
f 280/311/281 281/310/280 283/312/282 282/313/283
f 280/311/281 282/313/283 279/308/278
f 284/314/284 283/312/282 281/310/280 277/304/274
f 279/308/278 282/313/283 286/315/285 285/316/286
f 285/316/286 286/315/285 288/317/287 287/318/288
f 289/319/289 286/315/285 282/313/283 283/312/282
f 286/315/285 289/319/289 288/317/287
f 287/318/288 288/317/287 291/320/290 290/321/291
f 290/321/291 291/320/290 342/322/292 341/323/293
f 288/317/287 289/319/289 344/324/294 343/325/295
f 288/317/287 343/325/295 357/326/296 291/320/290
f 292/327/297 346/328/298 344/324/294
f 344/324/294 289/319/289 292/327/297
f 290/329/291 341/330/293 348/331/299 293/332/300
f 287/333/288 290/329/291 293/332/300 294/334/301
f 277/304/274 274/307/277 350/335/302 351/336/303
f 284/314/284 277/304/274 351/336/303 352/337/304
f 292/327/297 284/314/284 352/337/304 346/328/298
f 284/314/284 292/327/297 289/319/289 283/312/282
f 285/338/286 287/339/288 294/340/301 295/341/305
f 322/342/306 295/341/305 296/343/307
f 296/343/307 321/344/308 322/342/306
f 293/332/300 348/331/299 356/345/309 297/346/310
f 294/334/301 293/332/300 297/346/310 298/347/311
f 291/320/290 357/326/296 342/322/292
f 296/343/307 295/341/305 299/348/312 300/349/313
f 299/348/312 295/341/305 301/350/314
f 296/343/307 300/349/313 302/351/315
f 300/349/313 299/348/312 301/350/314 302/351/315
f 350/335/302 274/307/277 303/352/316 365/353/317
f 274/307/277 275/306/276 304/354/318 303/352/316
f 365/353/317 303/352/316 305/355/319 368/356/320
f 303/352/316 304/354/318 306/357/321 305/355/319
f 320/358/322 386/359/323 305/360/319
f 306/361/321 318/362/324 320/358/322
f 371/363/325 307/364/326 309/365/327 374/366/328
f 307/364/326 308/367/329 310/368/330 309/365/327
f 374/366/328 309/365/327 311/369/331 377/370/332
f 309/365/327 310/368/330 312/371/333 311/369/331
f 377/370/332 311/369/331 313/372/334 380/373/335
f 311/369/331 312/371/333 313/372/334
f 380/373/335 313/372/334 315/374/336 382/375/337
f 294/340/301 313/372/334 301/350/314 295/341/305
f 298/376/311 315/374/336 313/372/334 294/340/301
f 296/343/307 302/351/315 314/377/338 321/344/308
f 310/368/330 314/377/338 302/351/315 312/371/333
f 301/350/314 313/372/334 312/371/333 302/351/315
f 306/361/321 316/378/339 319/379/340 318/362/324
f 310/368/330 308/367/329 317/380/341 314/377/338
f 306/357/321 304/354/318 316/381/339
f 278/309/279 316/381/339 304/354/318
f 317/380/341 319/379/340 321/344/308 314/377/338
f 304/354/318 275/306/276 278/309/279
f 320/358/322 318/362/324 308/367/329 307/364/326
f 318/362/324 319/379/340 317/380/341 308/367/329
f 386/359/323 320/358/322 307/364/326 371/363/325
f 321/344/308 319/379/340 322/342/306
f 279/382/278 285/338/286 295/341/305 322/342/306
f 305/360/319 306/361/321 320/358/322
f 386/359/323 388/358/342 366/360/343
f 322/342/306 316/378/339 278/383/279
f 279/382/278 322/342/306 278/383/279
f 319/379/340 316/378/339 322/342/306
f 326/384/344 323/385/345 324/386/346 325/387/347
f 324/386/346 327/388/348 328/389/349 325/387/347
f 325/387/347 329/390/350 330/391/351 326/384/344
f 328/389/349 329/390/350 325/387/347
f 329/390/350 331/392/352 332/393/353 330/391/351
f 329/390/350 328/389/349 331/392/352
f 333/394/354 326/384/344 330/391/351 332/393/353
f 328/389/349 334/395/355 335/396/356 331/392/352
f 334/395/355 336/397/357 337/398/358 335/396/356
f 338/399/359 332/393/353 331/392/352 335/396/356
f 335/396/356 337/398/358 338/399/359
f 336/397/357 339/400/360 340/401/361 337/398/358
f 339/400/360 341/323/293 342/322/292 340/401/361
f 337/398/358 343/325/295 344/324/294 338/399/359
f 337/398/358 340/401/361 357/326/296 343/325/295
f 345/402/362 344/324/294 346/328/298
f 344/324/294 345/402/362 338/399/359
f 339/403/360 347/404/363 348/331/299 341/330/293
f 336/405/357 349/406/364 347/404/363 339/403/360
f 326/384/344 351/336/303 350/335/302 323/385/345
f 333/394/354 352/337/304 351/336/303 326/384/344
f 345/402/362 346/328/298 352/337/304 333/394/354
f 333/394/354 332/393/353 338/399/359 345/402/362
f 334/338/355 353/341/365 349/340/364 336/339/357
f 390/342/366 354/343/367 353/341/365
f 354/343/367 390/342/366 389/344/368
f 347/404/363 355/407/369 356/345/309 348/331/299
f 349/406/364 358/408/370 355/407/369 347/404/363
f 340/401/361 342/322/292 357/326/296
f 354/343/367 360/349/371 359/348/372 353/341/365
f 359/348/372 361/350/373 353/341/365
f 354/343/367 362/351/374 360/349/371
f 360/349/371 362/351/374 361/350/373 359/348/372
f 350/335/302 365/353/317 363/409/375 323/385/345
f 323/385/345 363/409/375 364/410/376 324/386/346
f 365/353/317 368/356/320 366/411/343 363/409/375
f 363/409/375 366/411/343 367/412/377 364/410/376
f 368/413/320 386/359/323 366/360/343
f 367/361/377 388/358/342 385/362/378
f 371/363/325 374/366/328 372/365/379 369/364/380
f 369/364/380 372/365/379 373/368/381 370/367/382
f 374/366/328 377/370/332 375/369/383 372/365/379
f 372/365/379 375/369/383 376/371/384 373/368/381
f 377/370/332 380/373/335 378/372/385 375/369/383
f 375/369/383 378/372/385 376/371/384
f 380/373/335 382/375/337 381/374/386 378/372/385
f 349/340/364 353/341/365 361/350/373 378/372/385
f 358/376/370 349/340/364 378/372/385 381/374/386
f 354/343/367 389/344/368 379/377/387 362/351/374
f 373/368/381 376/371/384 362/351/374 379/377/387
f 361/350/373 362/351/374 376/371/384 378/372/385
f 367/361/377 385/362/378 387/379/388 383/378/389
f 373/368/381 379/377/387 384/380/390 370/367/382
f 367/412/377 383/414/389 364/410/376
f 327/388/348 364/410/376 383/414/389
f 384/380/390 379/377/387 389/344/368 387/379/388
f 364/410/376 327/388/348 324/386/346
f 388/358/342 369/364/380 370/367/382 385/362/378
f 385/362/378 370/367/382 384/380/390 387/379/388
f 386/359/323 371/363/325 369/364/380 388/358/342
f 389/344/368 390/342/366 387/379/388
f 328/382/349 390/342/366 353/341/365 334/338/355
f 366/360/343 388/358/342 367/361/377
f 390/342/366 327/383/348 383/378/389
f 328/382/349 327/383/348 390/342/366
f 387/379/388 390/342/366 383/378/389
f 409/415/391 405/416/392 394/417/393 401/418/394
f 401/418/394 394/417/393 398/419/395 402/420/396
f 408/421/397 407/422/398 396/423/399
f 403/424/400 396/423/399 392/425/401 400/426/402
f 404/427/403 406/428/404 395/429/405 391/430/406
f 407/431/398 405/432/392 392/425/401 396/423/399
f 441/433/407 438/434/408 402/420/396
f 426/435/409 423/436/410 422/437/411
f 406/438/404 397/439/412 399/440/413 395/441/405
f 410/442/414 420/443/415 424/444/416 415/445/417
f 430/446/418 439/447/419 436/448/420 431/449/421
f 415/450/417 424/451/416 422/437/411 412/452/422
f 395/441/405 399/440/413 416/453/423 391/454/406
f 414/455/424 427/456/425 420/443/415 410/442/414
f 435/457/426 400/426/402 409/458/391 444/459/427
f 441/460/407 408/421/397 440/461/428
f 444/462/427 409/415/391 401/418/394 438/463/408
f 408/421/397 403/424/400 440/464/428
f 431/449/421 436/465/420 443/466/429 432/467/430
f 438/468/408 401/418/394 402/420/396
f 433/469/431 437/470/432 442/471/433 434/472/434
f 412/452/422 422/437/411 418/473/435 413/474/436
f 408/475/397 441/476/407 402/420/396
f 398/419/395 394/417/393 405/477/392 407/478/398
f 393/479/437 406/480/404 404/481/403
f 398/419/395 407/482/398 408/475/397
f 400/426/402 392/425/401 405/483/392 409/458/391
f 393/479/437 410/442/414 415/445/417 397/484/412
f 416/453/423 413/474/436 414/485/424 411/486/438
f 411/487/438 414/455/424 410/442/414 393/479/437
f 404/481/403 411/487/438 393/479/437
f 397/439/412 415/450/417 412/452/422 399/440/413
f 399/440/413 412/452/422 413/474/436 416/453/423
f 391/454/406 416/453/423 411/486/438 404/488/403
f 393/479/437 397/484/412 406/480/404
f 423/436/410 417/489/439 418/473/435 422/437/411
f 418/473/435 417/489/439 429/490/440
f 425/491/441 423/436/410 426/435/409
f 426/435/409 422/437/411 424/451/416
f 428/492/442 419/493/443 421/494/444 429/495/440
f 429/495/440 421/494/444 420/443/415 427/456/425
f 417/489/439 428/496/442 429/490/440
f 418/473/435 429/490/440 427/497/425
f 419/493/443 425/498/441 426/499/409 421/494/444
f 421/494/444 426/499/409 424/444/416 420/443/415
f 413/474/436 418/473/435 427/497/425 414/485/424
f 402/420/396 398/419/395 408/475/397
f 432/500/430 443/501/429 437/502/432 433/469/431
f 434/503/434 442/504/433 439/505/419 430/446/418
f 403/424/400 408/421/397 396/423/399
f 425/491/441 434/503/434 430/446/418 423/436/410
f 428/492/442 432/500/430 433/469/431 419/493/443
f 419/493/443 433/469/431 434/472/434 425/498/441
f 417/489/439 431/449/421 432/467/430 428/496/442
f 423/436/410 430/446/418 431/449/421 417/489/439
f 438/434/408 441/433/407 442/471/433 437/470/432
f 440/506/428 435/507/426 436/448/420 439/447/419
f 441/460/407 440/461/428 439/505/419 442/504/433
f 444/462/427 438/463/408 437/502/432 443/501/429
f 435/457/426 444/459/427 443/466/429 436/465/420
f 440/506/428 403/424/400 400/426/402 435/507/426
f 463/415/445 455/418/446 448/417/447 459/416/448
f 455/418/446 456/420/449 452/419/450 448/417/447
f 462/421/451 450/423/452 461/422/453
f 457/424/454 454/426/455 446/425/456 450/423/452
f 458/427/457 445/430/458 449/429/459 460/428/460
f 461/431/453 450/423/452 446/425/456 459/432/448
f 495/433/461 456/420/449 492/434/462
f 480/435/463 476/437/464 477/436/465
f 460/438/460 449/441/459 453/440/466 451/439/467
f 464/442/468 469/445/469 478/444/470 474/443/471
f 484/446/472 485/449/473 490/448/474 493/447/475
f 469/450/469 466/452/476 476/437/464 478/451/470
f 449/441/459 445/454/458 470/453/477 453/440/466
f 468/455/478 464/442/468 474/443/471 481/456/479
f 489/457/480 498/459/481 463/458/445 454/426/455
f 495/460/461 494/461/482 462/421/451
f 498/462/481 492/463/462 455/418/446 463/415/445
f 462/421/451 494/464/482 457/424/454
f 485/449/473 486/467/483 497/466/484 490/465/474
f 492/468/462 456/420/449 455/418/446
f 487/469/485 488/472/486 496/471/487 491/470/488
f 466/452/476 467/474/489 472/473/490 476/437/464
f 462/475/451 456/420/449 495/476/461
f 452/419/450 461/478/453 459/477/448 448/417/447
f 447/479/491 458/481/457 460/480/460
f 452/419/450 462/475/451 461/482/453
f 454/426/455 463/458/445 459/483/448 446/425/456
f 447/479/491 451/484/467 469/445/469 464/442/468
f 470/453/477 465/486/492 468/485/478 467/474/489
f 465/487/492 447/479/491 464/442/468 468/455/478
f 458/481/457 447/479/491 465/487/492
f 451/439/467 453/440/466 466/452/476 469/450/469
f 453/440/466 470/453/477 467/474/489 466/452/476
f 445/454/458 458/488/457 465/486/492 470/453/477
f 447/479/491 460/480/460 451/484/467
f 477/436/465 476/437/464 472/473/490 471/489/493
f 472/473/490 483/490/494 471/489/493
f 479/491/495 480/435/463 477/436/465
f 480/435/463 478/451/470 476/437/464
f 482/492/496 483/495/494 475/494/497 473/493/498
f 483/495/494 481/456/479 474/443/471 475/494/497
f 471/489/493 483/490/494 482/496/496
f 472/473/490 481/497/479 483/490/494
f 473/493/498 475/494/497 480/499/463 479/498/495
f 475/494/497 474/443/471 478/444/470 480/499/463
f 467/474/489 468/485/478 481/497/479 472/473/490
f 456/420/449 462/475/451 452/419/450
f 486/500/483 487/469/485 491/502/488 497/501/484
f 488/503/486 484/446/472 493/505/475 496/504/487
f 457/424/454 450/423/452 462/421/451
f 479/491/495 477/436/465 484/446/472 488/503/486
f 482/492/496 473/493/498 487/469/485 486/500/483
f 473/493/498 479/498/495 488/472/486 487/469/485
f 471/489/493 482/496/496 486/467/483 485/449/473
f 477/436/465 471/489/493 485/449/473 484/446/472
f 492/434/462 491/470/488 496/471/487 495/433/461
f 494/506/482 493/447/475 490/448/474 489/507/480
f 495/460/461 496/504/487 493/505/475 494/461/482
f 498/462/481 497/501/484 491/502/488 492/463/462
f 489/457/480 490/465/474 497/466/484 498/459/481
f 494/506/482 489/507/480 454/426/455 457/424/454
f 386/359/323 368/413/320 305/360/319
