# Blender 4.3.1
# www.blender.org
v 1.743932 8.733417 -1.743932 1.0000 0.0000 0.0000
v 1.743932 -0.197515 -1.743932 1.0000 0.0000 0.0000
v 1.743932 8.733417 1.743932 1.0000 0.0000 0.0000
v 1.743932 -0.197515 1.743932 0.0000 1.0000 0.0000
v -1.743932 8.733417 -1.743932 1.0000 0.0000 0.0000
v -1.743932 -0.197515 -1.743932 1.0000 0.0000 0.0000
v -1.743932 8.733417 1.743932 0.0000 1.0000 0.0000
v -1.743932 -0.197515 1.743932 1.0000 0.0000 0.0000
v 1.743932 5.756439 -1.743932 0.0000 0.0000 1.0000
v 1.743932 2.779463 -1.743932 0.0000 0.0000 1.0000
v -1.743932 2.779463 1.743932 1.0000 0.0000 0.0000
v -1.743932 5.756439 1.743932 1.0000 0.0000 0.0000
v 1.743932 5.756439 1.743932 1.0000 0.0000 0.0000
v 1.743932 2.779463 1.743932 1.0000 0.0000 0.0000
v -1.743932 5.756439 -1.743932 1.0000 0.0000 0.0000
v -1.743932 2.779463 -1.743932 1.0000 0.0000 0.0000
v 0.581311 -0.197515 -1.743932 0.0000 0.0000 1.0000
v -0.581311 -0.197515 -1.743932 1.0000 0.0000 0.0000
v 0.581311 8.733417 1.743932 1.0000 0.0000 0.0000
v -0.581311 8.733417 1.743932 1.0000 0.0000 0.0000
v -0.581311 -0.197515 1.743932 1.0000 0.0000 0.0000
v 0.581311 -0.197515 1.743932 1.0000 0.0000 0.0000
v -0.581311 8.733417 -1.743932 1.0000 0.0000 0.0000
v 0.581311 8.733417 -1.743932 1.0000 0.0000 0.0000
v -0.581311 2.779463 -1.743932 1.0000 0.0000 0.0000
v 0.581311 2.779463 -1.743932 0.0000 0.0000 1.0000
v -0.581311 5.756439 -1.743932 1.0000 0.0000 0.0000
v 0.581311 5.756439 -1.743932 1.0000 0.0000 0.0000
v 0.581311 2.779463 1.743932 0.0000 1.0000 0.0000
v -0.581311 2.779463 1.743932 1.0000 0.0000 0.0000
v 0.581311 5.756439 1.743932 1.0000 0.0000 0.0000
v -0.581311 5.756439 1.743932 1.0000 0.0000 0.0000
v -1.743932 -0.197515 0.000000 0.0000 0.0000 1.0000
v 1.743932 8.733417 0.000000 1.0000 0.0000 0.0000
v -1.743932 8.733417 0.000000 0.5019 0.5019 0.0000
v 1.743932 -0.197515 0.000000 0.5019 0.5019 0.0000
v 1.743932 2.779463 0.000000 1.0000 0.0000 0.0000
v 1.743932 5.756439 0.000000 1.0000 0.0000 0.0000
v -1.743932 2.779463 0.000000 1.0000 0.0000 0.0000
v -1.743932 5.756439 0.000000 1.0000 0.0000 0.0000
v -0.581311 -0.197515 0.000000 1.0000 0.0000 0.0000
v 0.581311 -0.197515 0.000000 1.0000 0.0000 0.0000
v 0.581311 8.733417 0.000000 1.0000 0.0000 0.0000
v -0.581311 8.733417 0.000000 1.0000 0.0000 0.0000
vn -0.0000 1.0000 -0.0000
vn -0.0000 -0.0000 1.0000
vn -1.0000 -0.0000 -0.0000
vn -0.0000 -1.0000 -0.0000
vn 1.0000 -0.0000 -0.0000
vn -0.0000 -0.0000 -1.0000
vt 0.791667 0.625000
vt 0.875000 0.625000
vt 0.875000 0.750000
vt 0.791667 0.750000
vt 0.541667 0.916667
vt 0.625000 0.916667
vt 0.625000 1.000000
vt 0.541667 1.000000
vt 0.541667 0.125000
vt 0.625000 0.125000
vt 0.625000 0.250000
vt 0.541667 0.250000
vt 0.291667 0.625000
vt 0.375000 0.625000
vt 0.375000 0.750000
vt 0.291667 0.750000
vt 0.541667 0.625000
vt 0.625000 0.625000
vt 0.625000 0.750000
vt 0.541667 0.750000
vt 0.541667 0.416667
vt 0.625000 0.416667
vt 0.625000 0.500000
vt 0.541667 0.500000
vt 0.375000 0.416667
vt 0.458333 0.416667
vt 0.458333 0.500000
vt 0.375000 0.500000
vt 0.458333 0.625000
vt 0.458333 0.750000
vt 0.375000 0.125000
vt 0.458333 0.125000
vt 0.458333 0.250000
vt 0.375000 0.250000
vt 0.375000 0.916667
vt 0.458333 0.916667
vt 0.458333 1.000000
vt 0.375000 1.000000
vt 0.541667 0.833333
vt 0.458333 0.833333
vt 0.375000 0.833333
vt 0.541667 0.333333
vt 0.458333 0.333333
vt 0.375000 0.333333
vt 0.625000 0.333333
vt 0.125000 0.625000
vt 0.208333 0.625000
vt 0.208333 0.750000
vt 0.125000 0.750000
vt 0.625000 0.833333
vt 0.708333 0.625000
vt 0.708333 0.750000
vt 0.708333 0.500000
vt 0.791667 0.500000
vt 0.208333 0.500000
vt 0.291667 0.500000
vt 0.125000 0.500000
vt 0.458333 0.000000
vt 0.541667 0.000000
vt 0.375000 0.000000
vt 0.625000 0.000000
vt 0.875000 0.500000
f 44/1/1 35/2/1 7/3/1 20/4/1
f 32/5/2 20/6/2 7/7/2 12/8/2
f 40/9/3 35/10/3 5/11/3 15/12/3
f 42/13/4 36/14/4 4/15/4 22/16/4
f 38/17/5 34/18/5 3/19/5 13/20/5
f 28/21/6 24/22/6 1/23/6 9/24/6
f 17/25/6 26/26/6 10/27/6 2/28/6
f 26/26/6 28/21/6 9/24/6 10/27/6
f 36/14/5 37/29/5 14/30/5 4/15/5
f 37/29/5 38/17/5 13/20/5 14/30/5
f 33/31/3 39/32/3 16/33/3 6/34/3
f 39/32/3 40/9/3 15/12/3 16/33/3
f 21/35/2 30/36/2 11/37/2 8/38/2
f 30/36/2 32/5/2 12/8/2 11/37/2
f 14/30/2 13/20/2 31/39/2 29/40/2
f 29/40/2 31/39/2 32/5/2 30/36/2
f 4/15/2 14/30/2 29/40/2 22/41/2
f 22/41/2 29/40/2 30/36/2 21/35/2
f 16/33/6 15/12/6 27/42/6 25/43/6
f 25/43/6 27/42/6 28/21/6 26/26/6
f 6/34/6 16/33/6 25/43/6 18/44/6
f 18/44/6 25/43/6 26/26/6 17/25/6
f 15/12/6 5/11/6 23/45/6 27/42/6
f 27/42/6 23/45/6 24/22/6 28/21/6
f 33/46/4 41/47/4 21/48/4 8/49/4
f 41/47/4 42/13/4 22/16/4 21/48/4
f 13/20/2 3/19/2 19/50/2 31/39/2
f 31/39/2 19/50/2 20/6/2 32/5/2
f 34/18/1 43/51/1 19/52/1 3/19/1
f 43/51/1 44/1/1 20/4/1 19/52/1
f 24/53/1 23/54/1 44/1/1 43/51/1
f 1/23/1 24/53/1 43/51/1 34/18/1
f 18/55/4 17/56/4 42/13/4 41/47/4
f 6/57/4 18/55/4 41/47/4 33/46/4
f 11/58/3 12/59/3 40/9/3 39/32/3
f 8/60/3 11/58/3 39/32/3 33/31/3
f 10/27/5 9/24/5 38/17/5 37/29/5
f 2/28/5 10/27/5 37/29/5 36/14/5
f 9/24/5 1/23/5 34/18/5 38/17/5
f 17/56/4 2/28/4 36/14/4 42/13/4
f 12/59/3 7/61/3 35/10/3 40/9/3
f 23/54/1 5/62/1 35/2/1 44/1/1
