# Blender 4.3.2
# www.blender.org
o Plane
v -0.500000 0.000000 0.500000 1.0000 0.0000 0.0000
v 0.500000 0.000000 0.500000 1.0000 0.0000 0.0000
v -0.500000 0.000000 -0.500000 1.0000 0.0000 0.0000
v 0.500000 0.000000 -0.500000 1.0000 0.0000 0.0000
v -0.500000 0.000000 -0.450000 1.0000 0.0000 0.0000
v -0.500000 0.000000 -0.400000 1.0000 0.0000 0.0000
v -0.500000 0.000000 -0.350000 1.0000 0.0000 0.0000
v -0.500000 0.000000 -0.300000 0.8549 0.0000 0.5216
v -0.500000 0.000000 -0.250000 0.6863 0.0000 0.7255
v -0.500000 0.000000 -0.200000 0.4784 0.0000 0.8784
v -0.500000 0.000000 -0.150000 0.4784 0.0000 0.8784
v -0.500000 0.000000 -0.100000 0.4784 0.0000 0.8784
v -0.500000 0.000000 -0.050000 0.4784 0.0000 0.8784
v -0.500000 0.000000 0.000000 0.4784 0.0000 0.8784
v -0.500000 0.000000 0.050000 0.4784 0.0000 0.8784
v -0.500000 0.000000 0.100000 0.4784 0.0000 0.8784
v -0.500000 0.000000 0.150000 0.4784 0.0000 0.8784
v -0.500000 0.000000 0.200000 0.6824 0.0000 0.7294
v -0.500000 0.000000 0.250000 0.9882 0.0000 0.1530
v -0.500000 0.000000 0.300000 1.0000 0.0000 0.0000
v -0.500000 0.000000 0.350000 1.0000 0.0000 0.0000
v -0.500000 0.000000 0.400000 1.0000 0.0000 0.0000
v -0.500000 0.000000 0.450000 1.0000 0.0000 0.0000
v 0.500000 0.000000 0.450000 1.0000 0.0000 0.0000
v 0.500000 0.000000 0.400000 1.0000 0.0000 0.0000
v 0.500000 0.000000 0.350000 1.0000 0.0000 0.0000
v 0.500000 0.000000 0.300000 1.0000 0.0000 0.0000
v 0.500000 0.000000 0.250000 1.0000 0.0000 0.0000
v 0.500000 0.000000 0.200000 1.0000 0.0000 0.0000
v 0.500000 0.000000 0.150000 1.0000 0.0000 0.0000
v 0.500000 0.000000 0.100000 1.0000 0.0000 0.0000
v 0.500000 0.000000 0.050000 1.0000 0.0000 0.0000
v 0.500000 0.000000 -0.000000 1.0000 0.0000 0.0000
v 0.500000 0.000000 -0.050000 1.0000 0.0000 0.0000
v 0.500000 0.000000 -0.100000 0.4667 0.0000 0.8823
v 0.500000 0.000000 -0.150000 0.1569 0.0000 0.9882
v 0.500000 0.000000 -0.200000 0.1098 0.0000 0.9960
v 0.500000 0.000000 -0.250000 0.1098 0.0000 0.9960
v 0.500000 0.000000 -0.300000 0.1098 0.0000 0.9960
v 0.500000 0.000000 -0.350000 0.3137 0.0000 0.9490
v 0.500000 0.000000 -0.400000 0.8039 0.0000 0.6000
v 0.500000 0.000000 -0.450000 1.0000 0.0000 0.0000
v -0.450000 0.000000 0.500000 1.0000 0.0000 0.0000
v -0.400000 0.000000 0.500000 1.0000 0.0000 0.0000
v -0.350000 0.000000 0.500000 0.5569 0.8313 0.0000
v -0.300000 0.000000 0.500000 0.5569 0.8313 0.0000
v -0.250000 0.000000 0.500000 0.5569 0.8313 0.0000
v -0.200000 0.000000 0.500000 0.0000 1.0000 0.0000
v -0.150000 0.000000 0.500000 0.0000 1.0000 0.0000
v -0.100000 0.000000 0.500000 0.0000 1.0000 0.0000
v -0.050000 0.000000 0.500000 0.0000 1.0000 0.0000
v 0.000000 0.000000 0.500000 0.5451 0.8392 0.0000
v 0.050000 0.000000 0.500000 0.4784 0.8784 0.0000
v 0.100000 0.000000 0.500000 0.8784 0.4784 0.0000
v 0.150000 0.000000 0.500000 1.0000 0.0000 0.0000
v 0.200000 0.000000 0.500000 1.0000 0.0000 0.0000
v 0.250000 0.000000 0.500000 1.0000 0.0000 0.0000
v 0.300000 0.000000 0.500000 1.0000 0.0000 0.0000
v 0.350000 0.000000 0.500000 1.0000 0.0000 0.0000
v 0.400000 0.000000 0.500000 1.0000 0.0000 0.0000
v 0.450000 0.000000 0.500000 1.0000 0.0000 0.0000
v 0.450000 0.000000 -0.500000 1.0000 0.0000 0.0000
v 0.400000 0.000000 -0.500000 1.0000 0.0000 0.0000
v 0.350000 0.000000 -0.500000 1.0000 0.0000 0.0000
v 0.300000 0.000000 -0.500000 1.0000 0.0000 0.0000
v 0.250000 0.000000 -0.500000 1.0000 0.0000 0.0000
v 0.200000 0.000000 -0.500000 1.0000 0.0000 0.0000
v 0.150000 0.000000 -0.500000 1.0000 0.0000 0.0000
v 0.100000 0.000000 -0.500000 1.0000 0.0000 0.0000
v 0.050000 0.000000 -0.500000 1.0000 0.0000 0.0000
v -0.000000 0.000000 -0.500000 1.0000 0.0000 0.0000
v -0.050000 0.000000 -0.500000 1.0000 0.0000 0.0000
v -0.100000 0.000000 -0.500000 1.0000 0.0000 0.0000
v -0.150000 0.000000 -0.500000 1.0000 0.0000 0.0000
v -0.200000 0.000000 -0.500000 1.0000 0.0000 0.0000
v -0.250000 0.000000 -0.500000 1.0000 0.0000 0.0000
v -0.300000 0.000000 -0.500000 1.0000 0.0000 0.0000
v -0.350000 0.000000 -0.500000 1.0000 0.0000 0.0000
v -0.400000 0.000000 -0.500000 1.0000 0.0000 0.0000
v -0.450000 0.000000 -0.500000 1.0000 0.0000 0.0000
v 0.450000 0.000000 0.450000 1.0000 0.0000 0.0000
v 0.400000 0.000000 0.450000 1.0000 0.0000 0.0000
v 0.350000 0.000000 0.450000 1.0000 0.0000 0.0000
v 0.300000 0.000000 0.450000 1.0000 0.0000 0.0000
v 0.250000 0.000000 0.450000 1.0000 0.0000 0.0000
v 0.200000 0.000000 0.450000 1.0000 0.0000 0.0000
v 0.150000 0.000000 0.450000 1.0000 0.0000 0.0000
v 0.100000 0.000000 0.450000 0.6706 0.7372 0.0000
v 0.050000 0.000000 0.450000 0.4784 0.8784 0.0000
v -0.000000 0.000000 0.450000 0.4784 0.8784 0.0000
v -0.050000 0.000000 0.450000 0.0000 1.0000 0.0000
v -0.100000 0.000000 0.450000 0.0000 1.0000 0.0000
v -0.150000 0.000000 0.450000 0.0000 1.0000 0.0000
v -0.200000 0.000000 0.450000 0.0000 1.0000 0.0000
v -0.250000 0.000000 0.450000 0.1647 0.9843 0.0000
v -0.300000 0.000000 0.450000 0.5569 0.8313 0.0000
v -0.350000 0.000000 0.450000 0.5569 0.8313 0.0000
v -0.400000 0.000000 0.450000 0.6589 0.7568 0.0000
v -0.450000 0.000000 0.450000 1.0000 0.0000 0.0000
v 0.450000 0.000000 0.400000 1.0000 0.0000 0.0000
v 0.400000 0.000000 0.400000 1.0000 0.0000 0.0000
v 0.350000 0.000000 0.400000 1.0000 0.0000 0.0000
v 0.300000 0.000000 0.400000 1.0000 0.0000 0.0000
v 0.250000 0.000000 0.400000 1.0000 0.0000 0.0000
v 0.200000 0.000000 0.400000 1.0000 0.0000 0.0000
v 0.150000 0.000000 0.400000 1.0000 0.0000 0.0000
v 0.100000 0.000000 0.400000 0.6902 0.7216 0.0000
v 0.050000 0.000000 0.400000 0.4784 0.8784 0.0000
v -0.000000 0.000000 0.400000 0.4784 0.8784 0.0000
v -0.050000 0.000000 0.400000 0.4039 0.9137 0.0000
v -0.100000 0.000000 0.400000 0.0000 1.0000 0.0000
v -0.150000 0.000000 0.400000 0.0000 1.0000 0.0000
v -0.200000 0.000000 0.400000 0.0000 1.0000 0.0000
v -0.250000 0.000000 0.400000 0.0745 0.9960 0.0000
v -0.300000 0.000000 0.400000 0.5569 0.8313 0.0000
v -0.350000 0.000000 0.400000 0.5569 0.8313 0.0000
v -0.400000 0.000000 0.400000 0.5569 0.8313 0.0000
v -0.450000 0.000000 0.400000 1.0000 0.0000 0.0000
v 0.450000 0.000000 0.350000 1.0000 0.0000 0.0000
v 0.400000 0.000000 0.350000 1.0000 0.0000 0.0000
v 0.350000 0.000000 0.350000 1.0000 0.0000 0.0000
v 0.300000 0.000000 0.350000 1.0000 0.0000 0.0000
v 0.250000 0.000000 0.350000 1.0000 0.0000 0.0000
v 0.200000 0.000000 0.350000 1.0000 0.0000 0.0000
v 0.150000 0.000000 0.350000 1.0000 0.0000 0.0000
v 0.100000 0.000000 0.350000 0.6902 0.7216 0.0000
v 0.050000 0.000000 0.350000 0.4784 0.8784 0.0000
v -0.000000 0.000000 0.350000 0.4784 0.8784 0.0000
v -0.050000 0.000000 0.350000 0.2706 0.9647 0.0000
v -0.100000 0.000000 0.350000 0.0000 1.0000 0.0000
v -0.150000 0.000000 0.350000 0.0000 1.0000 0.0000
v -0.200000 0.000000 0.350000 0.0000 1.0000 0.0000
v -0.250000 0.000000 0.350000 0.3098 0.9529 0.0000
v -0.300000 0.000000 0.350000 0.5569 0.8313 0.0000
v -0.350000 0.000000 0.350000 0.5569 0.8313 0.0000
v -0.400000 0.000000 0.350000 0.8000 0.5961 0.0000
v -0.450000 0.000000 0.350000 1.0000 0.0000 0.0000
v 0.450000 0.000000 0.300000 1.0000 0.0000 0.0000
v 0.400000 0.000000 0.300000 1.0000 0.0000 0.0000
v 0.350000 0.000000 0.300000 1.0000 0.0000 0.0000
v 0.300000 0.000000 0.300000 1.0000 0.0000 0.0000
v 0.250000 0.000000 0.300000 1.0000 0.0000 0.0000
v 0.200000 0.000000 0.300000 1.0000 0.0000 0.0000
v 0.150000 0.000000 0.300000 1.0000 0.0000 0.0000
v 0.100000 0.000000 0.300000 0.8706 0.4941 0.0000
v 0.050000 0.000000 0.300000 0.6902 0.7216 0.0000
v -0.000000 0.000000 0.300000 0.4784 0.8784 0.0000
v -0.050000 0.000000 0.300000 0.4550 0.8902 0.0000
v -0.100000 0.000000 0.300000 0.0000 1.0000 0.0000
v -0.150000 0.000000 0.300000 0.0000 1.0000 0.0000
v -0.200000 0.000000 0.300000 0.0000 1.0000 0.0000
v -0.250000 0.000000 0.300000 0.0000 1.0000 0.0000
v -0.300000 0.000000 0.300000 0.5569 0.8313 0.0000
v -0.350000 0.000000 0.300000 0.5569 0.8313 0.0000
v -0.400000 0.000000 0.300000 1.0000 0.0000 0.0000
v -0.450000 0.000000 0.300000 1.0000 0.0000 0.0000
v 0.450000 0.000000 0.250000 1.0000 0.0000 0.0000
v 0.400000 0.000000 0.250000 0.9764 0.0000 0.2157
v 0.350000 0.000000 0.250000 0.7882 0.0000 0.6157
v 0.300000 0.000000 0.250000 0.8941 0.0000 0.4510
v 0.250000 0.000000 0.250000 1.0000 0.0000 0.0000
v 0.200000 0.000000 0.250000 1.0000 0.0000 0.0000
v 0.150000 0.000000 0.250000 1.0000 0.0000 0.0000
v 0.100000 0.000000 0.250000 1.0000 0.0000 0.0000
v 0.050000 0.000000 0.250000 0.6902 0.7216 0.0000
v -0.000000 0.000000 0.250000 0.4784 0.8784 0.0000
v -0.050000 0.000000 0.250000 0.4784 0.8784 0.0000
v -0.100000 0.000000 0.250000 0.0000 1.0000 0.0000
v -0.150000 0.000000 0.250000 0.0000 1.0000 0.0000
v -0.200000 0.000000 0.250000 0.0000 1.0000 0.0000
v -0.250000 0.000000 0.250000 0.2667 0.9647 0.0000
v -0.300000 0.000000 0.250000 0.5569 0.8313 0.0000
v -0.350000 0.000000 0.250000 0.9804 0.1961 0.0000
v -0.400000 0.000000 0.250000 0.9921 0.0000 0.1255
v -0.450000 0.000000 0.250000 0.9607 0.0000 0.2784
v 0.450000 0.000000 0.200000 0.9019 0.0000 0.4275
v 0.400000 0.000000 0.200000 0.6902 0.0000 0.7216
v 0.350000 0.000000 0.200000 0.6902 0.0000 0.7216
v 0.300000 0.000000 0.200000 0.6902 0.0000 0.7216
v 0.250000 0.000000 0.200000 0.6902 0.0000 0.7216
v 0.200000 0.000000 0.200000 1.0000 0.0000 0.0000
v 0.150000 0.000000 0.200000 1.0000 0.0000 0.0000
v 0.100000 0.000000 0.200000 1.0000 0.0000 0.0000
v 0.050000 0.000000 0.200000 0.6902 0.7216 0.0000
v -0.000000 0.000000 0.200000 0.5608 0.8313 0.0000
v -0.050000 0.000000 0.200000 0.4784 0.8784 0.0000
v -0.100000 0.000000 0.200000 0.3490 0.9372 0.0000
v -0.150000 0.000000 0.200000 0.3647 0.9333 0.0000
v -0.200000 0.000000 0.200000 0.5373 0.8431 0.0000
v -0.250000 0.000000 0.200000 0.5569 0.8313 0.0000
v -0.300000 0.000000 0.200000 0.5569 0.8313 0.0000
v -0.350000 0.000000 0.200000 0.7333 0.0000 0.6785
v -0.400000 0.000000 0.200000 0.6863 0.0000 0.7255
v -0.450000 0.000000 0.200000 0.6589 0.0000 0.7529
v 0.450000 0.000000 0.150000 0.6902 0.0000 0.7216
v 0.400000 0.000000 0.150000 0.6902 0.0000 0.7216
v 0.350000 0.000000 0.150000 0.6902 0.0000 0.7216
v 0.300000 0.000000 0.150000 0.6902 0.0000 0.7216
v 0.250000 0.000000 0.150000 0.6902 0.0000 0.7216
v 0.200000 0.000000 0.150000 0.9686 0.0000 0.2549
v 0.150000 0.000000 0.150000 1.0000 0.0000 0.0000
v 0.100000 0.000000 0.150000 1.0000 0.0000 0.0000
v 0.050000 0.000000 0.150000 0.8078 0.5843 0.0000
v -0.000000 0.000000 0.150000 0.6902 0.7216 0.0000
v -0.050000 0.000000 0.150000 0.5608 0.8274 0.0000
v -0.100000 0.000000 0.150000 0.4941 0.8706 0.0000
v -0.150000 0.000000 0.150000 0.9960 0.0902 0.0000
v -0.200000 0.000000 0.150000 0.7725 0.6315 0.0000
v -0.250000 0.000000 0.150000 0.9843 0.1765 0.0000
v -0.300000 0.000000 0.150000 0.6902 0.0000 0.7216
v -0.350000 0.000000 0.150000 0.4784 0.0000 0.8784
v -0.400000 0.000000 0.150000 0.4784 0.0000 0.8784
v -0.450000 0.000000 0.150000 0.4784 0.0000 0.8784
v 0.450000 0.000000 0.100000 0.6902 0.0000 0.7216
v 0.400000 0.000000 0.100000 0.6902 0.0000 0.7216
v 0.350000 0.000000 0.100000 0.6902 0.0000 0.7216
v 0.300000 0.000000 0.100000 0.6902 0.0000 0.7216
v 0.250000 0.000000 0.100000 0.6902 0.0000 0.7216
v 0.200000 0.000000 0.100000 0.7921 0.0000 0.6079
v 0.150000 0.000000 0.100000 1.0000 0.0000 0.0000
v 0.100000 0.000000 0.100000 1.0000 0.0000 0.0000
v 0.050000 0.000000 0.100000 1.0000 0.0000 0.0000
v -0.000000 0.000000 0.100000 0.6902 0.7216 0.0000
v -0.050000 0.000000 0.100000 0.6902 0.7216 0.0000
v -0.100000 0.000000 0.100000 0.8078 0.5882 0.0000
v -0.150000 0.000000 0.100000 1.0000 0.0000 0.0000
v -0.200000 0.000000 0.100000 1.0000 0.0000 0.0000
v -0.250000 0.000000 0.100000 0.9568 0.0000 0.2902
v -0.300000 0.000000 0.100000 0.4784 0.0000 0.8784
v -0.350000 0.000000 0.100000 0.4784 0.0000 0.8784
v -0.400000 0.000000 0.100000 0.4784 0.0000 0.8784
v -0.450000 0.000000 0.100000 0.4784 0.0000 0.8784
v 0.450000 0.000000 0.050000 0.6902 0.0000 0.7216
v 0.400000 0.000000 0.050000 0.6902 0.0000 0.7216
v 0.350000 0.000000 0.050000 0.6902 0.0000 0.7216
v 0.300000 0.000000 0.050000 0.6902 0.0000 0.7216
v 0.250000 0.000000 0.050000 0.6902 0.0000 0.7216
v 0.200000 0.000000 0.050000 0.7372 0.0000 0.6785
v 0.150000 0.000000 0.050000 1.0000 0.0000 0.0000
v 0.100000 0.000000 0.050000 1.0000 0.0000 0.0000
v 0.050000 0.000000 0.050000 1.0000 0.0000 0.0000
v -0.000000 0.000000 0.050000 1.0000 0.0000 0.0000
v -0.050000 0.000000 0.050000 1.0000 0.0000 0.0000
v -0.100000 0.000000 0.050000 1.0000 0.0000 0.0000
v -0.150000 0.000000 0.050000 1.0000 0.0000 0.0000
v -0.200000 0.000000 0.050000 1.0000 0.0000 0.0000
v -0.250000 0.000000 0.050000 0.4784 0.0000 0.8784
v -0.300000 0.000000 0.050000 0.4784 0.0000 0.8784
v -0.350000 0.000000 0.050000 0.4784 0.0000 0.8784
v -0.400000 0.000000 0.050000 0.4784 0.0000 0.8784
v -0.450000 0.000000 0.050000 0.4784 0.0000 0.8784
v 0.450000 0.000000 -0.000000 0.6902 0.0000 0.7216
v 0.400000 0.000000 -0.000000 0.6902 0.0000 0.7216
v 0.350000 0.000000 -0.000000 0.6902 0.0000 0.7216
v 0.300000 0.000000 -0.000000 0.6902 0.0000 0.7216
v 0.250000 0.000000 -0.000000 0.6902 0.0000 0.7216
v 0.200000 0.000000 -0.000000 0.6157 0.0000 0.7804
v 0.150000 0.000000 -0.000000 0.6589 0.0000 0.7490
v 0.100000 0.000000 -0.000000 0.6902 0.0000 0.7216
v 0.050000 0.000000 -0.000000 0.7098 0.0000 0.7059
v -0.000000 0.000000 0.000000 1.0000 0.0000 0.0000
v -0.050000 0.000000 0.000000 1.0000 0.0000 0.0000
v -0.100000 0.000000 0.000000 1.0000 0.0000 0.0000
v -0.150000 0.000000 0.000000 1.0000 0.0000 0.0000
v -0.200000 0.000000 0.000000 1.0000 0.0000 0.0000
v -0.250000 0.000000 0.000000 0.4784 0.0000 0.8784
v -0.300000 0.000000 0.000000 0.4784 0.0000 0.8784
v -0.350000 0.000000 0.000000 0.4784 0.0000 0.8784
v -0.400000 0.000000 0.000000 0.4784 0.0000 0.8784
v -0.450000 0.000000 0.000000 0.4784 0.0000 0.8784
v 0.450000 0.000000 -0.050000 0.7490 0.0000 0.6667
v 0.400000 0.000000 -0.050000 0.6902 0.0000 0.7216
v 0.350000 0.000000 -0.050000 0.6863 0.0000 0.7255
v 0.300000 0.000000 -0.050000 0.5530 0.0000 0.8313
v 0.250000 0.000000 -0.050000 0.2784 0.0000 0.9607
v 0.200000 0.000000 -0.050000 0.2078 0.0000 0.9804
v 0.150000 0.000000 -0.050000 0.4432 0.0000 0.8941
v 0.100000 0.000000 -0.050000 0.4784 0.0000 0.8784
v 0.050000 0.000000 -0.050000 0.6197 0.0000 0.7804
v -0.000000 0.000000 -0.050000 0.6980 0.0000 0.7137
v -0.050000 0.000000 -0.050000 1.0000 0.0000 0.0000
v -0.100000 0.000000 -0.050000 1.0000 0.0000 0.0000
v -0.150000 0.000000 -0.050000 1.0000 0.0000 0.0000
v -0.200000 0.000000 -0.050000 0.9647 0.0000 0.2588
v -0.250000 0.000000 -0.050000 0.4784 0.0000 0.8784
v -0.300000 0.000000 -0.050000 0.4784 0.0000 0.8784
v -0.350000 0.000000 -0.050000 0.4784 0.0000 0.8784
v -0.400000 0.000000 -0.050000 0.4784 0.0000 0.8784
v -0.450000 0.000000 -0.050000 0.4784 0.0000 0.8784
v 0.450000 0.000000 -0.100000 0.3255 0.0000 0.9451
v 0.400000 0.000000 -0.100000 0.2627 0.0000 0.9647
v 0.350000 0.000000 -0.100000 0.1176 0.0000 0.9960
v 0.300000 0.000000 -0.100000 0.0706 0.0000 1.0000
v 0.250000 0.000000 -0.100000 0.0745 0.0000 0.9960
v 0.200000 0.000000 -0.100000 0.1530 0.0000 0.9882
v 0.150000 0.000000 -0.100000 0.2275 0.0000 0.9725
v 0.100000 0.000000 -0.100000 0.3412 0.0000 0.9411
v 0.050000 0.000000 -0.100000 0.4784 0.0000 0.8784
v -0.000000 0.000000 -0.100000 0.6824 0.0000 0.7294
v -0.050000 0.000000 -0.100000 0.9333 0.0000 0.3647
v -0.100000 0.000000 -0.100000 1.0000 0.0000 0.0000
v -0.150000 0.000000 -0.100000 1.0000 0.0000 0.0000
v -0.200000 0.000000 -0.100000 0.9686 0.0000 0.2471
v -0.250000 0.000000 -0.100000 0.4784 0.0000 0.8784
v -0.300000 0.000000 -0.100000 0.4784 0.0000 0.8784
v -0.350000 0.000000 -0.100000 0.4784 0.0000 0.8784
v -0.400000 0.000000 -0.100000 0.4784 0.0000 0.8784
v -0.450000 0.000000 -0.100000 0.4784 0.0000 0.8784
v 0.450000 0.000000 -0.150000 0.1098 0.0000 0.9960
v 0.400000 0.000000 -0.150000 0.0353 0.0000 1.0000
v 0.350000 0.000000 -0.150000 0.0275 0.0000 1.0000
v 0.300000 0.000000 -0.150000 0.0118 0.0000 1.0000
v 0.250000 0.000000 -0.150000 0.0314 0.0000 1.0000
v 0.200000 0.000000 -0.150000 0.1020 0.0000 0.9960
v 0.150000 0.000000 -0.150000 0.1216 0.0000 0.9921
v 0.100000 0.000000 -0.150000 0.2000 0.0000 0.9804
v 0.050000 0.000000 -0.150000 0.4784 0.0000 0.8784
v -0.000000 0.000000 -0.150000 0.5961 0.0000 0.8000
v -0.050000 0.000000 -0.150000 0.6902 0.0000 0.7216
v -0.100000 0.000000 -0.150000 0.6902 0.0000 0.7216
v -0.150000 0.000000 -0.150000 0.9921 0.0000 0.1255
v -0.200000 0.000000 -0.150000 0.7608 0.0000 0.6471
v -0.250000 0.000000 -0.150000 0.4784 0.0000 0.8784
v -0.300000 0.000000 -0.150000 0.4784 0.0000 0.8784
v -0.350000 0.000000 -0.150000 0.4784 0.0000 0.8784
v -0.400000 0.000000 -0.150000 0.4784 0.0000 0.8784
v -0.450000 0.000000 -0.150000 0.4784 0.0000 0.8784
v 0.450000 0.000000 -0.200000 0.0667 0.0000 1.0000
v 0.400000 0.000000 -0.200000 0.0314 0.0000 1.0000
v 0.350000 0.000000 -0.200000 0.0275 0.0000 1.0000
v 0.300000 0.000000 -0.200000 0.0157 0.0000 1.0000
v 0.250000 0.000000 -0.200000 0.0157 0.0000 1.0000
v 0.200000 0.000000 -0.200000 0.0353 0.0000 1.0000
v 0.150000 0.000000 -0.200000 0.1059 0.0000 0.9960
v 0.100000 0.000000 -0.200000 0.1569 0.0000 0.9882
v 0.050000 0.000000 -0.200000 0.3294 0.0000 0.9451
v -0.000000 0.000000 -0.200000 0.4510 0.0000 0.8902
v -0.050000 0.000000 -0.200000 0.4784 0.0000 0.8784
v -0.100000 0.000000 -0.200000 0.4784 0.0000 0.8784
v -0.150000 0.000000 -0.200000 0.4784 0.0000 0.8784
v -0.200000 0.000000 -0.200000 0.6902 0.0000 0.7216
v -0.250000 0.000000 -0.200000 0.4784 0.0000 0.8784
v -0.300000 0.000000 -0.200000 0.4784 0.0000 0.8784
v -0.350000 0.000000 -0.200000 0.4784 0.0000 0.8784
v -0.400000 0.000000 -0.200000 0.4784 0.0000 0.8784
v -0.450000 0.000000 -0.200000 0.4784 0.0000 0.8784
v 0.450000 0.000000 -0.250000 0.0824 0.0000 0.9960
v 0.400000 0.000000 -0.250000 0.0353 0.0000 1.0000
v 0.350000 0.000000 -0.250000 0.0275 0.0000 1.0000
v 0.300000 0.000000 -0.250000 0.0157 0.0000 1.0000
v 0.250000 0.000000 -0.250000 0.0157 0.0000 1.0000
v 0.200000 0.000000 -0.250000 0.0431 0.0000 1.0000
v 0.150000 0.000000 -0.250000 0.0588 0.0000 1.0000
v 0.100000 0.000000 -0.250000 0.1882 0.0000 0.9843
v 0.050000 0.000000 -0.250000 0.3294 0.0000 0.9451
v -0.000000 0.000000 -0.250000 0.4784 0.0000 0.8784
v -0.050000 0.000000 -0.250000 0.4784 0.0000 0.8784
v -0.100000 0.000000 -0.250000 0.4784 0.0000 0.8784
v -0.150000 0.000000 -0.250000 0.4784 0.0000 0.8784
v -0.200000 0.000000 -0.250000 0.6902 0.0000 0.7216
v -0.250000 0.000000 -0.250000 0.6745 0.0000 0.7372
v -0.300000 0.000000 -0.250000 0.4784 0.0000 0.8784
v -0.350000 0.000000 -0.250000 0.4784 0.0000 0.8784
v -0.400000 0.000000 -0.250000 0.4784 0.0000 0.8784
v -0.450000 0.000000 -0.250000 0.4784 0.0000 0.8784
v 0.450000 0.000000 -0.300000 0.1098 0.0000 0.9921
v 0.400000 0.000000 -0.300000 0.0980 0.0000 0.9960
v 0.350000 0.000000 -0.300000 0.0667 0.0000 1.0000
v 0.300000 0.000000 -0.300000 0.0353 0.0000 1.0000
v 0.250000 0.000000 -0.300000 0.0353 0.0000 1.0000
v 0.200000 0.000000 -0.300000 0.0549 0.0000 1.0000
v 0.150000 0.000000 -0.300000 0.1059 0.0000 0.9960
v 0.100000 0.000000 -0.300000 0.3725 0.0000 0.9294
v 0.050000 0.000000 -0.300000 0.4784 0.0000 0.8784
v -0.000000 0.000000 -0.300000 0.4784 0.0000 0.8784
v -0.050000 0.000000 -0.300000 0.4784 0.0000 0.8784
v -0.100000 0.000000 -0.300000 0.4784 0.0000 0.8784
v -0.150000 0.000000 -0.300000 0.4784 0.0000 0.8784
v -0.200000 0.000000 -0.300000 0.6902 0.0000 0.7216
v -0.250000 0.000000 -0.300000 0.6902 0.0000 0.7216
v -0.300000 0.000000 -0.300000 0.6902 0.0000 0.7216
v -0.350000 0.000000 -0.300000 0.6745 0.0000 0.7372
v -0.400000 0.000000 -0.300000 0.6785 0.0000 0.7333
v -0.450000 0.000000 -0.300000 0.6902 0.0000 0.7216
v 0.450000 0.000000 -0.350000 0.2706 0.0000 0.9647
v 0.400000 0.000000 -0.350000 0.2627 0.0000 0.9647
v 0.350000 0.000000 -0.350000 0.1882 0.0000 0.9804
v 0.300000 0.000000 -0.350000 0.1686 0.0000 0.9843
v 0.250000 0.000000 -0.350000 0.2275 0.0000 0.9725
v 0.200000 0.000000 -0.350000 0.2275 0.0000 0.9725
v 0.150000 0.000000 -0.350000 0.3019 0.0000 0.9529
v 0.100000 0.000000 -0.350000 0.4784 0.0000 0.8784
v 0.050000 0.000000 -0.350000 0.4784 0.0000 0.8784
v -0.000000 0.000000 -0.350000 0.4784 0.0000 0.8784
v -0.050000 0.000000 -0.350000 0.4784 0.0000 0.8784
v -0.100000 0.000000 -0.350000 0.4784 0.0000 0.8784
v -0.150000 0.000000 -0.350000 0.5216 0.0000 0.8509
v -0.200000 0.000000 -0.350000 0.6902 0.0000 0.7216
v -0.250000 0.000000 -0.350000 0.6902 0.0000 0.7216
v -0.300000 0.000000 -0.350000 0.6902 0.0000 0.7216
v -0.350000 0.000000 -0.350000 0.6902 0.0000 0.7216
v -0.400000 0.000000 -0.350000 0.6902 0.0000 0.7216
v -0.450000 0.000000 -0.350000 0.6902 0.0000 0.7216
v 0.450000 0.000000 -0.400000 0.6432 0.0000 0.7686
v 0.400000 0.000000 -0.400000 0.6824 0.0000 0.7294
v 0.350000 0.000000 -0.400000 0.6276 0.0000 0.7764
v 0.300000 0.000000 -0.400000 0.4784 0.0000 0.8784
v 0.250000 0.000000 -0.400000 0.4510 0.0000 0.8902
v 0.200000 0.000000 -0.400000 0.3059 0.0000 0.9490
v 0.150000 0.000000 -0.400000 0.4628 0.0000 0.8862
v 0.100000 0.000000 -0.400000 0.4784 0.0000 0.8784
v 0.050000 0.000000 -0.400000 0.4784 0.0000 0.8784
v -0.000000 0.000000 -0.400000 0.4784 0.0000 0.8784
v -0.050000 0.000000 -0.400000 0.4784 0.0000 0.8784
v -0.100000 0.000000 -0.400000 0.5961 0.0000 0.8000
v -0.150000 0.000000 -0.400000 0.6902 0.0000 0.7216
v -0.200000 0.000000 -0.400000 0.6902 0.0000 0.7216
v -0.250000 0.000000 -0.400000 0.6902 0.0000 0.7216
v -0.300000 0.000000 -0.400000 0.6902 0.0000 0.7216
v -0.350000 0.000000 -0.400000 0.6902 0.0000 0.7216
v -0.400000 0.000000 -0.400000 0.9215 0.0000 0.3921
v -0.450000 0.000000 -0.400000 1.0000 0.0000 0.0000
v 0.450000 0.000000 -0.450000 1.0000 0.0000 0.0000
v 0.400000 0.000000 -0.450000 1.0000 0.0000 0.0000
v 0.350000 0.000000 -0.450000 1.0000 0.0000 0.0000
v 0.300000 0.000000 -0.450000 1.0000 0.0000 0.0000
v 0.250000 0.000000 -0.450000 1.0000 0.0000 0.0000
v 0.200000 0.000000 -0.450000 1.0000 0.0000 0.0000
v 0.150000 0.000000 -0.450000 1.0000 0.0000 0.0000
v 0.100000 0.000000 -0.450000 0.9764 0.0000 0.2078
v 0.050000 0.000000 -0.450000 0.8000 0.0000 0.5961
v -0.000000 0.000000 -0.450000 0.6902 0.0000 0.7216
v -0.050000 0.000000 -0.450000 0.6902 0.0000 0.7216
v -0.100000 0.000000 -0.450000 0.6902 0.0000 0.7216
v -0.150000 0.000000 -0.450000 0.6902 0.0000 0.7216
v -0.200000 0.000000 -0.450000 0.6902 0.0000 0.7216
v -0.250000 0.000000 -0.450000 0.8902 0.0000 0.4550
v -0.300000 0.000000 -0.450000 0.9960 0.0000 0.0902
v -0.350000 0.000000 -0.450000 1.0000 0.0000 0.0000
v -0.400000 0.000000 -0.450000 1.0000 0.0000 0.0000
v -0.450000 0.000000 -0.450000 1.0000 0.0000 0.0000
vn -0.0000 1.0000 -0.0000
vt 1.000000 0.950000
vt 0.950000 1.000000
vt 0.950000 0.950000
vt 1.000000 0.000000
vt 0.950000 0.050000
vt 0.950000 0.000000
vt 1.000000 0.050000
vt 0.950000 0.100000
vt 1.000000 0.100000
vt 0.950000 0.150000
vt 1.000000 0.150000
vt 0.950000 0.200000
vt 1.000000 0.200000
vt 0.950000 0.250000
vt 1.000000 0.250000
vt 0.950000 0.300000
vt 1.000000 0.300000
vt 0.950000 0.350000
vt 1.000000 0.350000
vt 0.950000 0.400000
vt 1.000000 0.400000
vt 0.950000 0.450000
vt 1.000000 0.450000
vt 0.950000 0.500000
vt 1.000000 0.500000
vt 0.950000 0.550000
vt 1.000000 0.550000
vt 0.950000 0.600000
vt 1.000000 0.600000
vt 0.950000 0.650000
vt 1.000000 0.650000
vt 0.950000 0.700000
vt 1.000000 0.700000
vt 0.950000 0.750000
vt 1.000000 0.750000
vt 0.950000 0.800000
vt 1.000000 0.800000
vt 0.950000 0.850000
vt 1.000000 0.850000
vt 0.950000 0.900000
vt 1.000000 0.900000
vt 0.050000 0.900000
vt 0.000000 0.950000
vt 0.000000 0.900000
vt 0.100000 0.900000
vt 0.050000 0.950000
vt 0.150000 0.900000
vt 0.100000 0.950000
vt 0.200000 0.900000
vt 0.150000 0.950000
vt 0.250000 0.900000
vt 0.200000 0.950000
vt 0.300000 0.900000
vt 0.250000 0.950000
vt 0.350000 0.900000
vt 0.300000 0.950000
vt 0.400000 0.900000
vt 0.350000 0.950000
vt 0.450000 0.900000
vt 0.400000 0.950000
vt 0.500000 0.900000
vt 0.450000 0.950000
vt 0.550000 0.900000
vt 0.500000 0.950000
vt 0.600000 0.900000
vt 0.550000 0.950000
vt 0.650000 0.900000
vt 0.600000 0.950000
vt 0.700000 0.900000
vt 0.650000 0.950000
vt 0.750000 0.900000
vt 0.700000 0.950000
vt 0.800000 0.900000
vt 0.750000 0.950000
vt 0.850000 0.900000
vt 0.800000 0.950000
vt 0.900000 0.900000
vt 0.850000 0.950000
vt 0.900000 0.950000
vt 0.050000 0.850000
vt 0.000000 0.850000
vt 0.100000 0.850000
vt 0.150000 0.850000
vt 0.200000 0.850000
vt 0.250000 0.850000
vt 0.300000 0.850000
vt 0.350000 0.850000
vt 0.400000 0.850000
vt 0.450000 0.850000
vt 0.500000 0.850000
vt 0.550000 0.850000
vt 0.600000 0.850000
vt 0.650000 0.850000
vt 0.700000 0.850000
vt 0.750000 0.850000
vt 0.800000 0.850000
vt 0.850000 0.850000
vt 0.900000 0.850000
vt 0.050000 0.800000
vt 0.000000 0.800000
vt 0.100000 0.800000
vt 0.150000 0.800000
vt 0.200000 0.800000
vt 0.250000 0.800000
vt 0.300000 0.800000
vt 0.350000 0.800000
vt 0.400000 0.800000
vt 0.450000 0.800000
vt 0.500000 0.800000
vt 0.550000 0.800000
vt 0.600000 0.800000
vt 0.650000 0.800000
vt 0.700000 0.800000
vt 0.750000 0.800000
vt 0.800000 0.800000
vt 0.850000 0.800000
vt 0.900000 0.800000
vt 0.050000 0.750000
vt 0.000000 0.750000
vt 0.100000 0.750000
vt 0.150000 0.750000
vt 0.200000 0.750000
vt 0.250000 0.750000
vt 0.300000 0.750000
vt 0.350000 0.750000
vt 0.400000 0.750000
vt 0.450000 0.750000
vt 0.500000 0.750000
vt 0.550000 0.750000
vt 0.600000 0.750000
vt 0.650000 0.750000
vt 0.700000 0.750000
vt 0.750000 0.750000
vt 0.800000 0.750000
vt 0.850000 0.750000
vt 0.900000 0.750000
vt 0.050000 0.700000
vt 0.000000 0.700000
vt 0.100000 0.700000
vt 0.150000 0.700000
vt 0.200000 0.700000
vt 0.250000 0.700000
vt 0.300000 0.700000
vt 0.350000 0.700000
vt 0.400000 0.700000
vt 0.450000 0.700000
vt 0.500000 0.700000
vt 0.550000 0.700000
vt 0.600000 0.700000
vt 0.650000 0.700000
vt 0.700000 0.700000
vt 0.750000 0.700000
vt 0.800000 0.700000
vt 0.850000 0.700000
vt 0.900000 0.700000
vt 0.050000 0.650000
vt 0.000000 0.650000
vt 0.100000 0.650000
vt 0.150000 0.650000
vt 0.200000 0.650000
vt 0.250000 0.650000
vt 0.300000 0.650000
vt 0.350000 0.650000
vt 0.400000 0.650000
vt 0.450000 0.650000
vt 0.500000 0.650000
vt 0.550000 0.650000
vt 0.600000 0.650000
vt 0.650000 0.650000
vt 0.700000 0.650000
vt 0.750000 0.650000
vt 0.800000 0.650000
vt 0.850000 0.650000
vt 0.900000 0.650000
vt 0.050000 0.600000
vt 0.000000 0.600000
vt 0.100000 0.600000
vt 0.150000 0.600000
vt 0.200000 0.600000
vt 0.250000 0.600000
vt 0.300000 0.600000
vt 0.350000 0.600000
vt 0.400000 0.600000
vt 0.450000 0.600000
vt 0.500000 0.600000
vt 0.550000 0.600000
vt 0.600000 0.600000
vt 0.650000 0.600000
vt 0.700000 0.600000
vt 0.750000 0.600000
vt 0.800000 0.600000
vt 0.850000 0.600000
vt 0.900000 0.600000
vt 0.050000 0.550000
vt 0.000000 0.550000
vt 0.100000 0.550000
vt 0.150000 0.550000
vt 0.200000 0.550000
vt 0.250000 0.550000
vt 0.300000 0.550000
vt 0.350000 0.550000
vt 0.400000 0.550000
vt 0.450000 0.550000
vt 0.500000 0.550000
vt 0.550000 0.550000
vt 0.600000 0.550000
vt 0.650000 0.550000
vt 0.700000 0.550000
vt 0.750000 0.550000
vt 0.800000 0.550000
vt 0.850000 0.550000
vt 0.900000 0.550000
vt 0.050000 0.500000
vt 0.000000 0.500000
vt 0.100000 0.500000
vt 0.150000 0.500000
vt 0.200000 0.500000
vt 0.250000 0.500000
vt 0.300000 0.500000
vt 0.350000 0.500000
vt 0.400000 0.500000
vt 0.450000 0.500000
vt 0.500000 0.500000
vt 0.550000 0.500000
vt 0.600000 0.500000
vt 0.650000 0.500000
vt 0.700000 0.500000
vt 0.750000 0.500000
vt 0.800000 0.500000
vt 0.850000 0.500000
vt 0.900000 0.500000
vt 0.050000 0.450000
vt 0.000000 0.450000
vt 0.100000 0.450000
vt 0.150000 0.450000
vt 0.200000 0.450000
vt 0.250000 0.450000
vt 0.300000 0.450000
vt 0.350000 0.450000
vt 0.400000 0.450000
vt 0.450000 0.450000
vt 0.500000 0.450000
vt 0.550000 0.450000
vt 0.600000 0.450000
vt 0.650000 0.450000
vt 0.700000 0.450000
vt 0.750000 0.450000
vt 0.800000 0.450000
vt 0.850000 0.450000
vt 0.900000 0.450000
vt 0.050000 0.400000
vt 0.000000 0.400000
vt 0.100000 0.400000
vt 0.150000 0.400000
vt 0.200000 0.400000
vt 0.250000 0.400000
vt 0.300000 0.400000
vt 0.350000 0.400000
vt 0.400000 0.400000
vt 0.450000 0.400000
vt 0.500000 0.400000
vt 0.550000 0.400000
vt 0.600000 0.400000
vt 0.650000 0.400000
vt 0.700000 0.400000
vt 0.750000 0.400000
vt 0.800000 0.400000
vt 0.850000 0.400000
vt 0.900000 0.400000
vt 0.050000 0.350000
vt 0.000000 0.350000
vt 0.100000 0.350000
vt 0.150000 0.350000
vt 0.200000 0.350000
vt 0.250000 0.350000
vt 0.300000 0.350000
vt 0.350000 0.350000
vt 0.400000 0.350000
vt 0.450000 0.350000
vt 0.500000 0.350000
vt 0.550000 0.350000
vt 0.600000 0.350000
vt 0.650000 0.350000
vt 0.700000 0.350000
vt 0.750000 0.350000
vt 0.800000 0.350000
vt 0.850000 0.350000
vt 0.900000 0.350000
vt 0.050000 0.300000
vt 0.000000 0.300000
vt 0.100000 0.300000
vt 0.150000 0.300000
vt 0.200000 0.300000
vt 0.250000 0.300000
vt 0.300000 0.300000
vt 0.350000 0.300000
vt 0.400000 0.300000
vt 0.450000 0.300000
vt 0.500000 0.300000
vt 0.550000 0.300000
vt 0.600000 0.300000
vt 0.650000 0.300000
vt 0.700000 0.300000
vt 0.750000 0.300000
vt 0.800000 0.300000
vt 0.850000 0.300000
vt 0.900000 0.300000
vt 0.050000 0.250000
vt 0.000000 0.250000
vt 0.100000 0.250000
vt 0.150000 0.250000
vt 0.200000 0.250000
vt 0.250000 0.250000
vt 0.300000 0.250000
vt 0.350000 0.250000
vt 0.400000 0.250000
vt 0.450000 0.250000
vt 0.500000 0.250000
vt 0.550000 0.250000
vt 0.600000 0.250000
vt 0.650000 0.250000
vt 0.700000 0.250000
vt 0.750000 0.250000
vt 0.800000 0.250000
vt 0.850000 0.250000
vt 0.900000 0.250000
vt 0.050000 0.200000
vt 0.000000 0.200000
vt 0.100000 0.200000
vt 0.150000 0.200000
vt 0.200000 0.200000
vt 0.250000 0.200000
vt 0.300000 0.200000
vt 0.350000 0.200000
vt 0.400000 0.200000
vt 0.450000 0.200000
vt 0.500000 0.200000
vt 0.550000 0.200000
vt 0.600000 0.200000
vt 0.650000 0.200000
vt 0.700000 0.200000
vt 0.750000 0.200000
vt 0.800000 0.200000
vt 0.850000 0.200000
vt 0.900000 0.200000
vt 0.050000 0.150000
vt 0.000000 0.150000
vt 0.100000 0.150000
vt 0.150000 0.150000
vt 0.200000 0.150000
vt 0.250000 0.150000
vt 0.300000 0.150000
vt 0.350000 0.150000
vt 0.400000 0.150000
vt 0.450000 0.150000
vt 0.500000 0.150000
vt 0.550000 0.150000
vt 0.600000 0.150000
vt 0.650000 0.150000
vt 0.700000 0.150000
vt 0.750000 0.150000
vt 0.800000 0.150000
vt 0.850000 0.150000
vt 0.900000 0.150000
vt 0.050000 0.100000
vt 0.000000 0.100000
vt 0.100000 0.100000
vt 0.150000 0.100000
vt 0.200000 0.100000
vt 0.250000 0.100000
vt 0.300000 0.100000
vt 0.350000 0.100000
vt 0.400000 0.100000
vt 0.450000 0.100000
vt 0.500000 0.100000
vt 0.550000 0.100000
vt 0.600000 0.100000
vt 0.650000 0.100000
vt 0.700000 0.100000
vt 0.750000 0.100000
vt 0.800000 0.100000
vt 0.850000 0.100000
vt 0.900000 0.100000
vt 0.050000 0.050000
vt 0.000000 0.050000
vt 0.100000 0.050000
vt 0.150000 0.050000
vt 0.200000 0.050000
vt 0.250000 0.050000
vt 0.300000 0.050000
vt 0.350000 0.050000
vt 0.400000 0.050000
vt 0.450000 0.050000
vt 0.500000 0.050000
vt 0.550000 0.050000
vt 0.600000 0.050000
vt 0.650000 0.050000
vt 0.700000 0.050000
vt 0.750000 0.050000
vt 0.800000 0.050000
vt 0.850000 0.050000
vt 0.900000 0.050000
vt 0.050000 0.000000
vt 0.000000 0.000000
vt 0.100000 0.000000
vt 0.150000 0.000000
vt 0.200000 0.000000
vt 0.250000 0.000000
vt 0.300000 0.000000
vt 0.350000 0.000000
vt 0.400000 0.000000
vt 0.450000 0.000000
vt 0.500000 0.000000
vt 0.550000 0.000000
vt 0.600000 0.000000
vt 0.650000 0.000000
vt 0.700000 0.000000
vt 0.750000 0.000000
vt 0.800000 0.000000
vt 0.850000 0.000000
vt 0.900000 0.000000
vt 0.000000 1.000000
vt 0.050000 1.000000
vt 0.100000 1.000000
vt 0.150000 1.000000
vt 0.200000 1.000000
vt 0.250000 1.000000
vt 0.300000 1.000000
vt 0.350000 1.000000
vt 0.400000 1.000000
vt 0.450000 1.000000
vt 0.500000 1.000000
vt 0.550000 1.000000
vt 0.600000 1.000000
vt 0.650000 1.000000
vt 0.700000 1.000000
vt 0.750000 1.000000
vt 0.800000 1.000000
vt 0.850000 1.000000
vt 0.900000 1.000000
vt 1.000000 1.000000
s 0
f 42/1/1 62/2/1 423/3/1
f 2/4/1 81/5/1 61/6/1
f 24/7/1 100/8/1 81/5/1
f 25/9/1 119/10/1 100/8/1
f 26/11/1 138/12/1 119/10/1
f 27/13/1 157/14/1 138/12/1
f 28/15/1 176/16/1 157/14/1
f 29/17/1 195/18/1 176/16/1
f 30/19/1 214/20/1 195/18/1
f 31/21/1 233/22/1 214/20/1
f 32/23/1 252/24/1 233/22/1
f 33/25/1 271/26/1 252/24/1
f 34/27/1 290/28/1 271/26/1
f 35/29/1 309/30/1 290/28/1
f 36/31/1 328/32/1 309/30/1
f 37/33/1 347/34/1 328/32/1
f 38/35/1 366/36/1 347/34/1
f 39/37/1 385/38/1 366/36/1
f 40/39/1 404/40/1 385/38/1
f 41/41/1 423/3/1 404/40/1
f 422/42/1 5/43/1 6/44/1
f 421/45/1 441/46/1 422/42/1
f 420/47/1 440/48/1 421/45/1
f 419/49/1 439/50/1 420/47/1
f 418/51/1 438/52/1 419/49/1
f 417/53/1 437/54/1 418/51/1
f 416/55/1 436/56/1 417/53/1
f 415/57/1 435/58/1 416/55/1
f 414/59/1 434/60/1 415/57/1
f 413/61/1 433/62/1 414/59/1
f 412/63/1 432/64/1 413/61/1
f 411/65/1 431/66/1 412/63/1
f 410/67/1 430/68/1 411/65/1
f 409/69/1 429/70/1 410/67/1
f 408/71/1 428/72/1 409/69/1
f 407/73/1 427/74/1 408/71/1
f 406/75/1 426/76/1 407/73/1
f 405/77/1 425/78/1 406/75/1
f 404/40/1 424/79/1 405/77/1
f 403/80/1 6/44/1 7/81/1
f 402/82/1 422/42/1 403/80/1
f 401/83/1 421/45/1 402/82/1
f 400/84/1 420/47/1 401/83/1
f 399/85/1 419/49/1 400/84/1
f 398/86/1 418/51/1 399/85/1
f 397/87/1 417/53/1 398/86/1
f 396/88/1 416/55/1 397/87/1
f 395/89/1 415/57/1 396/88/1
f 394/90/1 414/59/1 395/89/1
f 393/91/1 413/61/1 394/90/1
f 392/92/1 412/63/1 393/91/1
f 391/93/1 411/65/1 392/92/1
f 390/94/1 410/67/1 391/93/1
f 389/95/1 409/69/1 390/94/1
f 388/96/1 408/71/1 389/95/1
f 387/97/1 407/73/1 388/96/1
f 386/98/1 406/75/1 387/97/1
f 385/38/1 405/77/1 386/98/1
f 384/99/1 7/81/1 8/100/1
f 383/101/1 403/80/1 384/99/1
f 382/102/1 402/82/1 383/101/1
f 381/103/1 401/83/1 382/102/1
f 380/104/1 400/84/1 381/103/1
f 379/105/1 399/85/1 380/104/1
f 378/106/1 398/86/1 379/105/1
f 377/107/1 397/87/1 378/106/1
f 376/108/1 396/88/1 377/107/1
f 375/109/1 395/89/1 376/108/1
f 374/110/1 394/90/1 375/109/1
f 373/111/1 393/91/1 374/110/1
f 372/112/1 392/92/1 373/111/1
f 371/113/1 391/93/1 372/112/1
f 370/114/1 390/94/1 371/113/1
f 369/115/1 389/95/1 370/114/1
f 368/116/1 388/96/1 369/115/1
f 367/117/1 387/97/1 368/116/1
f 366/36/1 386/98/1 367/117/1
f 365/118/1 8/100/1 9/119/1
f 364/120/1 384/99/1 365/118/1
f 363/121/1 383/101/1 364/120/1
f 362/122/1 382/102/1 363/121/1
f 361/123/1 381/103/1 362/122/1
f 360/124/1 380/104/1 361/123/1
f 359/125/1 379/105/1 360/124/1
f 358/126/1 378/106/1 359/125/1
f 357/127/1 377/107/1 358/126/1
f 356/128/1 376/108/1 357/127/1
f 355/129/1 375/109/1 356/128/1
f 354/130/1 374/110/1 355/129/1
f 353/131/1 373/111/1 354/130/1
f 352/132/1 372/112/1 353/131/1
f 351/133/1 371/113/1 352/132/1
f 350/134/1 370/114/1 351/133/1
f 349/135/1 369/115/1 350/134/1
f 348/136/1 368/116/1 349/135/1
f 347/34/1 367/117/1 348/136/1
f 346/137/1 9/119/1 10/138/1
f 345/139/1 365/118/1 346/137/1
f 344/140/1 364/120/1 345/139/1
f 343/141/1 363/121/1 344/140/1
f 342/142/1 362/122/1 343/141/1
f 341/143/1 361/123/1 342/142/1
f 340/144/1 360/124/1 341/143/1
f 339/145/1 359/125/1 340/144/1
f 338/146/1 358/126/1 339/145/1
f 337/147/1 357/127/1 338/146/1
f 336/148/1 356/128/1 337/147/1
f 335/149/1 355/129/1 336/148/1
f 334/150/1 354/130/1 335/149/1
f 333/151/1 353/131/1 334/150/1
f 332/152/1 352/132/1 333/151/1
f 331/153/1 351/133/1 332/152/1
f 330/154/1 350/134/1 331/153/1
f 329/155/1 349/135/1 330/154/1
f 328/32/1 348/136/1 329/155/1
f 327/156/1 10/138/1 11/157/1
f 326/158/1 346/137/1 327/156/1
f 325/159/1 345/139/1 326/158/1
f 324/160/1 344/140/1 325/159/1
f 323/161/1 343/141/1 324/160/1
f 322/162/1 342/142/1 323/161/1
f 321/163/1 341/143/1 322/162/1
f 320/164/1 340/144/1 321/163/1
f 319/165/1 339/145/1 320/164/1
f 318/166/1 338/146/1 319/165/1
f 317/167/1 337/147/1 318/166/1
f 316/168/1 336/148/1 317/167/1
f 315/169/1 335/149/1 316/168/1
f 314/170/1 334/150/1 315/169/1
f 313/171/1 333/151/1 314/170/1
f 312/172/1 332/152/1 313/171/1
f 311/173/1 331/153/1 312/172/1
f 310/174/1 330/154/1 311/173/1
f 309/30/1 329/155/1 310/174/1
f 308/175/1 11/157/1 12/176/1
f 307/177/1 327/156/1 308/175/1
f 306/178/1 326/158/1 307/177/1
f 305/179/1 325/159/1 306/178/1
f 304/180/1 324/160/1 305/179/1
f 303/181/1 323/161/1 304/180/1
f 302/182/1 322/162/1 303/181/1
f 301/183/1 321/163/1 302/182/1
f 300/184/1 320/164/1 301/183/1
f 299/185/1 319/165/1 300/184/1
f 298/186/1 318/166/1 299/185/1
f 297/187/1 317/167/1 298/186/1
f 296/188/1 316/168/1 297/187/1
f 295/189/1 315/169/1 296/188/1
f 294/190/1 314/170/1 295/189/1
f 293/191/1 313/171/1 294/190/1
f 292/192/1 312/172/1 293/191/1
f 291/193/1 311/173/1 292/192/1
f 290/28/1 310/174/1 291/193/1
f 289/194/1 12/176/1 13/195/1
f 288/196/1 308/175/1 289/194/1
f 287/197/1 307/177/1 288/196/1
f 286/198/1 306/178/1 287/197/1
f 285/199/1 305/179/1 286/198/1
f 284/200/1 304/180/1 285/199/1
f 283/201/1 303/181/1 284/200/1
f 282/202/1 302/182/1 283/201/1
f 281/203/1 301/183/1 282/202/1
f 280/204/1 300/184/1 281/203/1
f 279/205/1 299/185/1 280/204/1
f 278/206/1 298/186/1 279/205/1
f 277/207/1 297/187/1 278/206/1
f 276/208/1 296/188/1 277/207/1
f 275/209/1 295/189/1 276/208/1
f 274/210/1 294/190/1 275/209/1
f 273/211/1 293/191/1 274/210/1
f 272/212/1 292/192/1 273/211/1
f 271/26/1 291/193/1 272/212/1
f 270/213/1 13/195/1 14/214/1
f 269/215/1 289/194/1 270/213/1
f 268/216/1 288/196/1 269/215/1
f 267/217/1 287/197/1 268/216/1
f 266/218/1 286/198/1 267/217/1
f 265/219/1 285/199/1 266/218/1
f 264/220/1 284/200/1 265/219/1
f 263/221/1 283/201/1 264/220/1
f 262/222/1 282/202/1 263/221/1
f 261/223/1 281/203/1 262/222/1
f 260/224/1 280/204/1 261/223/1
f 259/225/1 279/205/1 260/224/1
f 258/226/1 278/206/1 259/225/1
f 257/227/1 277/207/1 258/226/1
f 256/228/1 276/208/1 257/227/1
f 255/229/1 275/209/1 256/228/1
f 254/230/1 274/210/1 255/229/1
f 253/231/1 273/211/1 254/230/1
f 252/24/1 272/212/1 253/231/1
f 251/232/1 14/214/1 15/233/1
f 250/234/1 270/213/1 251/232/1
f 249/235/1 269/215/1 250/234/1
f 248/236/1 268/216/1 249/235/1
f 247/237/1 267/217/1 248/236/1
f 246/238/1 266/218/1 247/237/1
f 245/239/1 265/219/1 246/238/1
f 244/240/1 264/220/1 245/239/1
f 243/241/1 263/221/1 244/240/1
f 242/242/1 262/222/1 243/241/1
f 241/243/1 261/223/1 242/242/1
f 240/244/1 260/224/1 241/243/1
f 239/245/1 259/225/1 240/244/1
f 238/246/1 258/226/1 239/245/1
f 237/247/1 257/227/1 238/246/1
f 236/248/1 256/228/1 237/247/1
f 235/249/1 255/229/1 236/248/1
f 234/250/1 254/230/1 235/249/1
f 233/22/1 253/231/1 234/250/1
f 232/251/1 15/233/1 16/252/1
f 231/253/1 251/232/1 232/251/1
f 230/254/1 250/234/1 231/253/1
f 229/255/1 249/235/1 230/254/1
f 228/256/1 248/236/1 229/255/1
f 227/257/1 247/237/1 228/256/1
f 226/258/1 246/238/1 227/257/1
f 225/259/1 245/239/1 226/258/1
f 224/260/1 244/240/1 225/259/1
f 223/261/1 243/241/1 224/260/1
f 222/262/1 242/242/1 223/261/1
f 221/263/1 241/243/1 222/262/1
f 220/264/1 240/244/1 221/263/1
f 219/265/1 239/245/1 220/264/1
f 218/266/1 238/246/1 219/265/1
f 217/267/1 237/247/1 218/266/1
f 216/268/1 236/248/1 217/267/1
f 215/269/1 235/249/1 216/268/1
f 214/20/1 234/250/1 215/269/1
f 213/270/1 16/252/1 17/271/1
f 212/272/1 232/251/1 213/270/1
f 211/273/1 231/253/1 212/272/1
f 210/274/1 230/254/1 211/273/1
f 209/275/1 229/255/1 210/274/1
f 208/276/1 228/256/1 209/275/1
f 207/277/1 227/257/1 208/276/1
f 206/278/1 226/258/1 207/277/1
f 205/279/1 225/259/1 206/278/1
f 204/280/1 224/260/1 205/279/1
f 203/281/1 223/261/1 204/280/1
f 202/282/1 222/262/1 203/281/1
f 201/283/1 221/263/1 202/282/1
f 200/284/1 220/264/1 201/283/1
f 199/285/1 219/265/1 200/284/1
f 198/286/1 218/266/1 199/285/1
f 197/287/1 217/267/1 198/286/1
f 196/288/1 216/268/1 197/287/1
f 195/18/1 215/269/1 196/288/1
f 194/289/1 17/271/1 18/290/1
f 193/291/1 213/270/1 194/289/1
f 192/292/1 212/272/1 193/291/1
f 191/293/1 211/273/1 192/292/1
f 190/294/1 210/274/1 191/293/1
f 189/295/1 209/275/1 190/294/1
f 188/296/1 208/276/1 189/295/1
f 187/297/1 207/277/1 188/296/1
f 186/298/1 206/278/1 187/297/1
f 185/299/1 205/279/1 186/298/1
f 184/300/1 204/280/1 185/299/1
f 183/301/1 203/281/1 184/300/1
f 182/302/1 202/282/1 183/301/1
f 181/303/1 201/283/1 182/302/1
f 180/304/1 200/284/1 181/303/1
f 179/305/1 199/285/1 180/304/1
f 178/306/1 198/286/1 179/305/1
f 177/307/1 197/287/1 178/306/1
f 176/16/1 196/288/1 177/307/1
f 175/308/1 18/290/1 19/309/1
f 174/310/1 194/289/1 175/308/1
f 173/311/1 193/291/1 174/310/1
f 172/312/1 192/292/1 173/311/1
f 171/313/1 191/293/1 172/312/1
f 170/314/1 190/294/1 171/313/1
f 169/315/1 189/295/1 170/314/1
f 168/316/1 188/296/1 169/315/1
f 167/317/1 187/297/1 168/316/1
f 166/318/1 186/298/1 167/317/1
f 165/319/1 185/299/1 166/318/1
f 164/320/1 184/300/1 165/319/1
f 163/321/1 183/301/1 164/320/1
f 162/322/1 182/302/1 163/321/1
f 161/323/1 181/303/1 162/322/1
f 160/324/1 180/304/1 161/323/1
f 159/325/1 179/305/1 160/324/1
f 158/326/1 178/306/1 159/325/1
f 157/14/1 177/307/1 158/326/1
f 156/327/1 19/309/1 20/328/1
f 155/329/1 175/308/1 156/327/1
f 154/330/1 174/310/1 155/329/1
f 153/331/1 173/311/1 154/330/1
f 152/332/1 172/312/1 153/331/1
f 151/333/1 171/313/1 152/332/1
f 150/334/1 170/314/1 151/333/1
f 149/335/1 169/315/1 150/334/1
f 148/336/1 168/316/1 149/335/1
f 147/337/1 167/317/1 148/336/1
f 146/338/1 166/318/1 147/337/1
f 145/339/1 165/319/1 146/338/1
f 144/340/1 164/320/1 145/339/1
f 143/341/1 163/321/1 144/340/1
f 142/342/1 162/322/1 143/341/1
f 141/343/1 161/323/1 142/342/1
f 140/344/1 160/324/1 141/343/1
f 139/345/1 159/325/1 140/344/1
f 138/12/1 158/326/1 139/345/1
f 137/346/1 20/328/1 21/347/1
f 136/348/1 156/327/1 137/346/1
f 135/349/1 155/329/1 136/348/1
f 134/350/1 154/330/1 135/349/1
f 133/351/1 153/331/1 134/350/1
f 132/352/1 152/332/1 133/351/1
f 131/353/1 151/333/1 132/352/1
f 130/354/1 150/334/1 131/353/1
f 129/355/1 149/335/1 130/354/1
f 128/356/1 148/336/1 129/355/1
f 127/357/1 147/337/1 128/356/1
f 126/358/1 146/338/1 127/357/1
f 125/359/1 145/339/1 126/358/1
f 124/360/1 144/340/1 125/359/1
f 123/361/1 143/341/1 124/360/1
f 122/362/1 142/342/1 123/361/1
f 121/363/1 141/343/1 122/362/1
f 120/364/1 140/344/1 121/363/1
f 119/10/1 139/345/1 120/364/1
f 118/365/1 21/347/1 22/366/1
f 117/367/1 137/346/1 118/365/1
f 116/368/1 136/348/1 117/367/1
f 115/369/1 135/349/1 116/368/1
f 114/370/1 134/350/1 115/369/1
f 113/371/1 133/351/1 114/370/1
f 112/372/1 132/352/1 113/371/1
f 111/373/1 131/353/1 112/372/1
f 110/374/1 130/354/1 111/373/1
f 109/375/1 129/355/1 110/374/1
f 108/376/1 128/356/1 109/375/1
f 107/377/1 127/357/1 108/376/1
f 106/378/1 126/358/1 107/377/1
f 105/379/1 125/359/1 106/378/1
f 104/380/1 124/360/1 105/379/1
f 103/381/1 123/361/1 104/380/1
f 102/382/1 122/362/1 103/381/1
f 101/383/1 121/363/1 102/382/1
f 100/8/1 120/364/1 101/383/1
f 99/384/1 22/366/1 23/385/1
f 98/386/1 118/365/1 99/384/1
f 97/387/1 117/367/1 98/386/1
f 96/388/1 116/368/1 97/387/1
f 95/389/1 115/369/1 96/388/1
f 94/390/1 114/370/1 95/389/1
f 93/391/1 113/371/1 94/390/1
f 92/392/1 112/372/1 93/391/1
f 91/393/1 111/373/1 92/392/1
f 90/394/1 110/374/1 91/393/1
f 89/395/1 109/375/1 90/394/1
f 88/396/1 108/376/1 89/395/1
f 87/397/1 107/377/1 88/396/1
f 86/398/1 106/378/1 87/397/1
f 85/399/1 105/379/1 86/398/1
f 84/400/1 104/380/1 85/399/1
f 83/401/1 103/381/1 84/400/1
f 82/402/1 102/382/1 83/401/1
f 81/5/1 101/383/1 82/402/1
f 43/403/1 23/385/1 1/404/1
f 43/403/1 98/386/1 99/384/1
f 44/405/1 97/387/1 98/386/1
f 45/406/1 96/388/1 97/387/1
f 46/407/1 95/389/1 96/388/1
f 47/408/1 94/390/1 95/389/1
f 48/409/1 93/391/1 94/390/1
f 49/410/1 92/392/1 93/391/1
f 50/411/1 91/393/1 92/392/1
f 51/412/1 90/394/1 91/393/1
f 52/413/1 89/395/1 90/394/1
f 53/414/1 88/396/1 89/395/1
f 54/415/1 87/397/1 88/396/1
f 55/416/1 86/398/1 87/397/1
f 56/417/1 85/399/1 86/398/1
f 57/418/1 84/400/1 85/399/1
f 58/419/1 83/401/1 84/400/1
f 59/420/1 82/402/1 83/401/1
f 60/421/1 81/5/1 82/402/1
f 441/46/1 3/422/1 5/43/1
f 440/48/1 80/423/1 441/46/1
f 439/50/1 79/424/1 440/48/1
f 438/52/1 78/425/1 439/50/1
f 437/54/1 77/426/1 438/52/1
f 436/56/1 76/427/1 437/54/1
f 435/58/1 75/428/1 436/56/1
f 434/60/1 74/429/1 435/58/1
f 433/62/1 73/430/1 434/60/1
f 432/64/1 72/431/1 433/62/1
f 431/66/1 71/432/1 432/64/1
f 430/68/1 70/433/1 431/66/1
f 429/70/1 69/434/1 430/68/1
f 428/72/1 68/435/1 429/70/1
f 427/74/1 67/436/1 428/72/1
f 426/76/1 66/437/1 427/74/1
f 425/78/1 65/438/1 426/76/1
f 424/79/1 64/439/1 425/78/1
f 423/3/1 63/440/1 424/79/1
f 42/1/1 4/441/1 62/2/1
f 2/4/1 24/7/1 81/5/1
f 24/7/1 25/9/1 100/8/1
f 25/9/1 26/11/1 119/10/1
f 26/11/1 27/13/1 138/12/1
f 27/13/1 28/15/1 157/14/1
f 28/15/1 29/17/1 176/16/1
f 29/17/1 30/19/1 195/18/1
f 30/19/1 31/21/1 214/20/1
f 31/21/1 32/23/1 233/22/1
f 32/23/1 33/25/1 252/24/1
f 33/25/1 34/27/1 271/26/1
f 34/27/1 35/29/1 290/28/1
f 35/29/1 36/31/1 309/30/1
f 36/31/1 37/33/1 328/32/1
f 37/33/1 38/35/1 347/34/1
f 38/35/1 39/37/1 366/36/1
f 39/37/1 40/39/1 385/38/1
f 40/39/1 41/41/1 404/40/1
f 41/41/1 42/1/1 423/3/1
f 422/42/1 441/46/1 5/43/1
f 421/45/1 440/48/1 441/46/1
f 420/47/1 439/50/1 440/48/1
f 419/49/1 438/52/1 439/50/1
f 418/51/1 437/54/1 438/52/1
f 417/53/1 436/56/1 437/54/1
f 416/55/1 435/58/1 436/56/1
f 415/57/1 434/60/1 435/58/1
f 414/59/1 433/62/1 434/60/1
f 413/61/1 432/64/1 433/62/1
f 412/63/1 431/66/1 432/64/1
f 411/65/1 430/68/1 431/66/1
f 410/67/1 429/70/1 430/68/1
f 409/69/1 428/72/1 429/70/1
f 408/71/1 427/74/1 428/72/1
f 407/73/1 426/76/1 427/74/1
f 406/75/1 425/78/1 426/76/1
f 405/77/1 424/79/1 425/78/1
f 404/40/1 423/3/1 424/79/1
f 403/80/1 422/42/1 6/44/1
f 402/82/1 421/45/1 422/42/1
f 401/83/1 420/47/1 421/45/1
f 400/84/1 419/49/1 420/47/1
f 399/85/1 418/51/1 419/49/1
f 398/86/1 417/53/1 418/51/1
f 397/87/1 416/55/1 417/53/1
f 396/88/1 415/57/1 416/55/1
f 395/89/1 414/59/1 415/57/1
f 394/90/1 413/61/1 414/59/1
f 393/91/1 412/63/1 413/61/1
f 392/92/1 411/65/1 412/63/1
f 391/93/1 410/67/1 411/65/1
f 390/94/1 409/69/1 410/67/1
f 389/95/1 408/71/1 409/69/1
f 388/96/1 407/73/1 408/71/1
f 387/97/1 406/75/1 407/73/1
f 386/98/1 405/77/1 406/75/1
f 385/38/1 404/40/1 405/77/1
f 384/99/1 403/80/1 7/81/1
f 383/101/1 402/82/1 403/80/1
f 382/102/1 401/83/1 402/82/1
f 381/103/1 400/84/1 401/83/1
f 380/104/1 399/85/1 400/84/1
f 379/105/1 398/86/1 399/85/1
f 378/106/1 397/87/1 398/86/1
f 377/107/1 396/88/1 397/87/1
f 376/108/1 395/89/1 396/88/1
f 375/109/1 394/90/1 395/89/1
f 374/110/1 393/91/1 394/90/1
f 373/111/1 392/92/1 393/91/1
f 372/112/1 391/93/1 392/92/1
f 371/113/1 390/94/1 391/93/1
f 370/114/1 389/95/1 390/94/1
f 369/115/1 388/96/1 389/95/1
f 368/116/1 387/97/1 388/96/1
f 367/117/1 386/98/1 387/97/1
f 366/36/1 385/38/1 386/98/1
f 365/118/1 384/99/1 8/100/1
f 364/120/1 383/101/1 384/99/1
f 363/121/1 382/102/1 383/101/1
f 362/122/1 381/103/1 382/102/1
f 361/123/1 380/104/1 381/103/1
f 360/124/1 379/105/1 380/104/1
f 359/125/1 378/106/1 379/105/1
f 358/126/1 377/107/1 378/106/1
f 357/127/1 376/108/1 377/107/1
f 356/128/1 375/109/1 376/108/1
f 355/129/1 374/110/1 375/109/1
f 354/130/1 373/111/1 374/110/1
f 353/131/1 372/112/1 373/111/1
f 352/132/1 371/113/1 372/112/1
f 351/133/1 370/114/1 371/113/1
f 350/134/1 369/115/1 370/114/1
f 349/135/1 368/116/1 369/115/1
f 348/136/1 367/117/1 368/116/1
f 347/34/1 366/36/1 367/117/1
f 346/137/1 365/118/1 9/119/1
f 345/139/1 364/120/1 365/118/1
f 344/140/1 363/121/1 364/120/1
f 343/141/1 362/122/1 363/121/1
f 342/142/1 361/123/1 362/122/1
f 341/143/1 360/124/1 361/123/1
f 340/144/1 359/125/1 360/124/1
f 339/145/1 358/126/1 359/125/1
f 338/146/1 357/127/1 358/126/1
f 337/147/1 356/128/1 357/127/1
f 336/148/1 355/129/1 356/128/1
f 335/149/1 354/130/1 355/129/1
f 334/150/1 353/131/1 354/130/1
f 333/151/1 352/132/1 353/131/1
f 332/152/1 351/133/1 352/132/1
f 331/153/1 350/134/1 351/133/1
f 330/154/1 349/135/1 350/134/1
f 329/155/1 348/136/1 349/135/1
f 328/32/1 347/34/1 348/136/1
f 327/156/1 346/137/1 10/138/1
f 326/158/1 345/139/1 346/137/1
f 325/159/1 344/140/1 345/139/1
f 324/160/1 343/141/1 344/140/1
f 323/161/1 342/142/1 343/141/1
f 322/162/1 341/143/1 342/142/1
f 321/163/1 340/144/1 341/143/1
f 320/164/1 339/145/1 340/144/1
f 319/165/1 338/146/1 339/145/1
f 318/166/1 337/147/1 338/146/1
f 317/167/1 336/148/1 337/147/1
f 316/168/1 335/149/1 336/148/1
f 315/169/1 334/150/1 335/149/1
f 314/170/1 333/151/1 334/150/1
f 313/171/1 332/152/1 333/151/1
f 312/172/1 331/153/1 332/152/1
f 311/173/1 330/154/1 331/153/1
f 310/174/1 329/155/1 330/154/1
f 309/30/1 328/32/1 329/155/1
f 308/175/1 327/156/1 11/157/1
f 307/177/1 326/158/1 327/156/1
f 306/178/1 325/159/1 326/158/1
f 305/179/1 324/160/1 325/159/1
f 304/180/1 323/161/1 324/160/1
f 303/181/1 322/162/1 323/161/1
f 302/182/1 321/163/1 322/162/1
f 301/183/1 320/164/1 321/163/1
f 300/184/1 319/165/1 320/164/1
f 299/185/1 318/166/1 319/165/1
f 298/186/1 317/167/1 318/166/1
f 297/187/1 316/168/1 317/167/1
f 296/188/1 315/169/1 316/168/1
f 295/189/1 314/170/1 315/169/1
f 294/190/1 313/171/1 314/170/1
f 293/191/1 312/172/1 313/171/1
f 292/192/1 311/173/1 312/172/1
f 291/193/1 310/174/1 311/173/1
f 290/28/1 309/30/1 310/174/1
f 289/194/1 308/175/1 12/176/1
f 288/196/1 307/177/1 308/175/1
f 287/197/1 306/178/1 307/177/1
f 286/198/1 305/179/1 306/178/1
f 285/199/1 304/180/1 305/179/1
f 284/200/1 303/181/1 304/180/1
f 283/201/1 302/182/1 303/181/1
f 282/202/1 301/183/1 302/182/1
f 281/203/1 300/184/1 301/183/1
f 280/204/1 299/185/1 300/184/1
f 279/205/1 298/186/1 299/185/1
f 278/206/1 297/187/1 298/186/1
f 277/207/1 296/188/1 297/187/1
f 276/208/1 295/189/1 296/188/1
f 275/209/1 294/190/1 295/189/1
f 274/210/1 293/191/1 294/190/1
f 273/211/1 292/192/1 293/191/1
f 272/212/1 291/193/1 292/192/1
f 271/26/1 290/28/1 291/193/1
f 270/213/1 289/194/1 13/195/1
f 269/215/1 288/196/1 289/194/1
f 268/216/1 287/197/1 288/196/1
f 267/217/1 286/198/1 287/197/1
f 266/218/1 285/199/1 286/198/1
f 265/219/1 284/200/1 285/199/1
f 264/220/1 283/201/1 284/200/1
f 263/221/1 282/202/1 283/201/1
f 262/222/1 281/203/1 282/202/1
f 261/223/1 280/204/1 281/203/1
f 260/224/1 279/205/1 280/204/1
f 259/225/1 278/206/1 279/205/1
f 258/226/1 277/207/1 278/206/1
f 257/227/1 276/208/1 277/207/1
f 256/228/1 275/209/1 276/208/1
f 255/229/1 274/210/1 275/209/1
f 254/230/1 273/211/1 274/210/1
f 253/231/1 272/212/1 273/211/1
f 252/24/1 271/26/1 272/212/1
f 251/232/1 270/213/1 14/214/1
f 250/234/1 269/215/1 270/213/1
f 249/235/1 268/216/1 269/215/1
f 248/236/1 267/217/1 268/216/1
f 247/237/1 266/218/1 267/217/1
f 246/238/1 265/219/1 266/218/1
f 245/239/1 264/220/1 265/219/1
f 244/240/1 263/221/1 264/220/1
f 243/241/1 262/222/1 263/221/1
f 242/242/1 261/223/1 262/222/1
f 241/243/1 260/224/1 261/223/1
f 240/244/1 259/225/1 260/224/1
f 239/245/1 258/226/1 259/225/1
f 238/246/1 257/227/1 258/226/1
f 237/247/1 256/228/1 257/227/1
f 236/248/1 255/229/1 256/228/1
f 235/249/1 254/230/1 255/229/1
f 234/250/1 253/231/1 254/230/1
f 233/22/1 252/24/1 253/231/1
f 232/251/1 251/232/1 15/233/1
f 231/253/1 250/234/1 251/232/1
f 230/254/1 249/235/1 250/234/1
f 229/255/1 248/236/1 249/235/1
f 228/256/1 247/237/1 248/236/1
f 227/257/1 246/238/1 247/237/1
f 226/258/1 245/239/1 246/238/1
f 225/259/1 244/240/1 245/239/1
f 224/260/1 243/241/1 244/240/1
f 223/261/1 242/242/1 243/241/1
f 222/262/1 241/243/1 242/242/1
f 221/263/1 240/244/1 241/243/1
f 220/264/1 239/245/1 240/244/1
f 219/265/1 238/246/1 239/245/1
f 218/266/1 237/247/1 238/246/1
f 217/267/1 236/248/1 237/247/1
f 216/268/1 235/249/1 236/248/1
f 215/269/1 234/250/1 235/249/1
f 214/20/1 233/22/1 234/250/1
f 213/270/1 232/251/1 16/252/1
f 212/272/1 231/253/1 232/251/1
f 211/273/1 230/254/1 231/253/1
f 210/274/1 229/255/1 230/254/1
f 209/275/1 228/256/1 229/255/1
f 208/276/1 227/257/1 228/256/1
f 207/277/1 226/258/1 227/257/1
f 206/278/1 225/259/1 226/258/1
f 205/279/1 224/260/1 225/259/1
f 204/280/1 223/261/1 224/260/1
f 203/281/1 222/262/1 223/261/1
f 202/282/1 221/263/1 222/262/1
f 201/283/1 220/264/1 221/263/1
f 200/284/1 219/265/1 220/264/1
f 199/285/1 218/266/1 219/265/1
f 198/286/1 217/267/1 218/266/1
f 197/287/1 216/268/1 217/267/1
f 196/288/1 215/269/1 216/268/1
f 195/18/1 214/20/1 215/269/1
f 194/289/1 213/270/1 17/271/1
f 193/291/1 212/272/1 213/270/1
f 192/292/1 211/273/1 212/272/1
f 191/293/1 210/274/1 211/273/1
f 190/294/1 209/275/1 210/274/1
f 189/295/1 208/276/1 209/275/1
f 188/296/1 207/277/1 208/276/1
f 187/297/1 206/278/1 207/277/1
f 186/298/1 205/279/1 206/278/1
f 185/299/1 204/280/1 205/279/1
f 184/300/1 203/281/1 204/280/1
f 183/301/1 202/282/1 203/281/1
f 182/302/1 201/283/1 202/282/1
f 181/303/1 200/284/1 201/283/1
f 180/304/1 199/285/1 200/284/1
f 179/305/1 198/286/1 199/285/1
f 178/306/1 197/287/1 198/286/1
f 177/307/1 196/288/1 197/287/1
f 176/16/1 195/18/1 196/288/1
f 175/308/1 194/289/1 18/290/1
f 174/310/1 193/291/1 194/289/1
f 173/311/1 192/292/1 193/291/1
f 172/312/1 191/293/1 192/292/1
f 171/313/1 190/294/1 191/293/1
f 170/314/1 189/295/1 190/294/1
f 169/315/1 188/296/1 189/295/1
f 168/316/1 187/297/1 188/296/1
f 167/317/1 186/298/1 187/297/1
f 166/318/1 185/299/1 186/298/1
f 165/319/1 184/300/1 185/299/1
f 164/320/1 183/301/1 184/300/1
f 163/321/1 182/302/1 183/301/1
f 162/322/1 181/303/1 182/302/1
f 161/323/1 180/304/1 181/303/1
f 160/324/1 179/305/1 180/304/1
f 159/325/1 178/306/1 179/305/1
f 158/326/1 177/307/1 178/306/1
f 157/14/1 176/16/1 177/307/1
f 156/327/1 175/308/1 19/309/1
f 155/329/1 174/310/1 175/308/1
f 154/330/1 173/311/1 174/310/1
f 153/331/1 172/312/1 173/311/1
f 152/332/1 171/313/1 172/312/1
f 151/333/1 170/314/1 171/313/1
f 150/334/1 169/315/1 170/314/1
f 149/335/1 168/316/1 169/315/1
f 148/336/1 167/317/1 168/316/1
f 147/337/1 166/318/1 167/317/1
f 146/338/1 165/319/1 166/318/1
f 145/339/1 164/320/1 165/319/1
f 144/340/1 163/321/1 164/320/1
f 143/341/1 162/322/1 163/321/1
f 142/342/1 161/323/1 162/322/1
f 141/343/1 160/324/1 161/323/1
f 140/344/1 159/325/1 160/324/1
f 139/345/1 158/326/1 159/325/1
f 138/12/1 157/14/1 158/326/1
f 137/346/1 156/327/1 20/328/1
f 136/348/1 155/329/1 156/327/1
f 135/349/1 154/330/1 155/329/1
f 134/350/1 153/331/1 154/330/1
f 133/351/1 152/332/1 153/331/1
f 132/352/1 151/333/1 152/332/1
f 131/353/1 150/334/1 151/333/1
f 130/354/1 149/335/1 150/334/1
f 129/355/1 148/336/1 149/335/1
f 128/356/1 147/337/1 148/336/1
f 127/357/1 146/338/1 147/337/1
f 126/358/1 145/339/1 146/338/1
f 125/359/1 144/340/1 145/339/1
f 124/360/1 143/341/1 144/340/1
f 123/361/1 142/342/1 143/341/1
f 122/362/1 141/343/1 142/342/1
f 121/363/1 140/344/1 141/343/1
f 120/364/1 139/345/1 140/344/1
f 119/10/1 138/12/1 139/345/1
f 118/365/1 137/346/1 21/347/1
f 117/367/1 136/348/1 137/346/1
f 116/368/1 135/349/1 136/348/1
f 115/369/1 134/350/1 135/349/1
f 114/370/1 133/351/1 134/350/1
f 113/371/1 132/352/1 133/351/1
f 112/372/1 131/353/1 132/352/1
f 111/373/1 130/354/1 131/353/1
f 110/374/1 129/355/1 130/354/1
f 109/375/1 128/356/1 129/355/1
f 108/376/1 127/357/1 128/356/1
f 107/377/1 126/358/1 127/357/1
f 106/378/1 125/359/1 126/358/1
f 105/379/1 124/360/1 125/359/1
f 104/380/1 123/361/1 124/360/1
f 103/381/1 122/362/1 123/361/1
f 102/382/1 121/363/1 122/362/1
f 101/383/1 120/364/1 121/363/1
f 100/8/1 119/10/1 120/364/1
f 99/384/1 118/365/1 22/366/1
f 98/386/1 117/367/1 118/365/1
f 97/387/1 116/368/1 117/367/1
f 96/388/1 115/369/1 116/368/1
f 95/389/1 114/370/1 115/369/1
f 94/390/1 113/371/1 114/370/1
f 93/391/1 112/372/1 113/371/1
f 92/392/1 111/373/1 112/372/1
f 91/393/1 110/374/1 111/373/1
f 90/394/1 109/375/1 110/374/1
f 89/395/1 108/376/1 109/375/1
f 88/396/1 107/377/1 108/376/1
f 87/397/1 106/378/1 107/377/1
f 86/398/1 105/379/1 106/378/1
f 85/399/1 104/380/1 105/379/1
f 84/400/1 103/381/1 104/380/1
f 83/401/1 102/382/1 103/381/1
f 82/402/1 101/383/1 102/382/1
f 81/5/1 100/8/1 101/383/1
f 43/403/1 99/384/1 23/385/1
f 43/403/1 44/405/1 98/386/1
f 44/405/1 45/406/1 97/387/1
f 45/406/1 46/407/1 96/388/1
f 46/407/1 47/408/1 95/389/1
f 47/408/1 48/409/1 94/390/1
f 48/409/1 49/410/1 93/391/1
f 49/410/1 50/411/1 92/392/1
f 50/411/1 51/412/1 91/393/1
f 51/412/1 52/413/1 90/394/1
f 52/413/1 53/414/1 89/395/1
f 53/414/1 54/415/1 88/396/1
f 54/415/1 55/416/1 87/397/1
f 55/416/1 56/417/1 86/398/1
f 56/417/1 57/418/1 85/399/1
f 57/418/1 58/419/1 84/400/1
f 58/419/1 59/420/1 83/401/1
f 59/420/1 60/421/1 82/402/1
f 60/421/1 61/6/1 81/5/1
f 441/46/1 80/423/1 3/422/1
f 440/48/1 79/424/1 80/423/1
f 439/50/1 78/425/1 79/424/1
f 438/52/1 77/426/1 78/425/1
f 437/54/1 76/427/1 77/426/1
f 436/56/1 75/428/1 76/427/1
f 435/58/1 74/429/1 75/428/1
f 434/60/1 73/430/1 74/429/1
f 433/62/1 72/431/1 73/430/1
f 432/64/1 71/432/1 72/431/1
f 431/66/1 70/433/1 71/432/1
f 430/68/1 69/434/1 70/433/1
f 429/70/1 68/435/1 69/434/1
f 428/72/1 67/436/1 68/435/1
f 427/74/1 66/437/1 67/436/1
f 426/76/1 65/438/1 66/437/1
f 425/78/1 64/439/1 65/438/1
f 424/79/1 63/440/1 64/439/1
f 423/3/1 62/2/1 63/440/1
